<svg width="783" height="150" viewBox="0 0 783 150" fill="none" xmlns="http://www.w3.org/2000/svg">
<path d="M281.512 83.1496C281.512 105.84 264.352 115.21 240.512 115.21C224.512 115.21 209.021 109.96 198.661 103.15L212.012 81.5896C219.242 86.5896 231.872 91.5196 241.092 91.5196C250.872 91.5196 253.992 89.8096 253.992 85.1296C253.992 81.4496 250.452 79.1296 237.112 76.0496C213.112 70.5196 201.652 63.9996 201.652 44.1396C201.652 25.4096 216.831 12.7896 240.801 12.7896C257.681 12.7896 269.882 16.8996 280.382 24.2796L267.012 45.8396C258.222 39.8396 249.422 36.4796 239.352 36.4796C231.132 36.4796 229.142 39.0296 229.142 42.5796C229.142 46.1296 232.692 47.9696 245.452 50.9496C270.452 56.9096 281.512 64.5696 281.512 83.1496Z" fill="#242424"/>
<path d="M365.062 113.64H339.392V71.3696C339.392 61.7296 336.132 59.1696 330.882 59.1696C325.632 59.1696 322.222 61.7296 322.222 71.0896V113.64H296.692V39.1696H322.222V44.1696C326.902 40.6196 332.152 37.6396 340.952 37.6396C357.262 37.6396 365.062 48.5696 365.062 68.1396V113.64Z" fill="#242424"/>
<path d="M406.632 113.64H381.092V39.1696H406.632V113.64ZM408.752 21.1596C408.752 28.9596 402.662 33.7796 393.862 33.7796C385.492 33.7796 379.252 28.9596 379.252 21.1596C379.252 13.9296 385.492 8.81958 393.862 8.81958C402.662 8.81958 408.752 13.9296 408.752 21.1596V21.1596Z" fill="#242424"/>
<path d="M448.762 62.1496C451.452 60.0296 454.152 58.6096 457.832 58.6096C463.222 58.6096 465.922 62.1496 465.922 77.0496C465.922 90.9496 463.222 94.2096 457.982 94.2096C453.982 94.2096 451.452 92.7896 448.762 90.6696V62.1496ZM465.352 115.21C481.662 115.21 491.172 102.87 491.172 76.2096C491.172 48.5496 480.392 37.6196 466.342 37.6196C458.542 37.6196 453.862 40.4596 448.762 44.4296V39.1696H423.222V140.24H448.782V108.68C452.872 111.8 458.012 115.21 465.352 115.21Z" fill="#242424"/>
<path d="M529.892 62.1496C532.592 60.0296 535.282 58.6096 538.972 58.6096C544.362 58.6096 547.061 62.1496 547.061 77.0496C547.061 90.9496 544.361 94.2096 539.111 94.2096C535.111 94.2096 532.592 92.7896 529.892 90.6696V62.1496ZM546.491 115.21C562.801 115.21 572.311 102.87 572.311 76.2096C572.311 48.5496 561.531 37.6196 547.481 37.6196C539.681 37.6196 535.002 40.4596 529.892 44.4296V39.1696H504.362V140.24H529.882V108.68C534.012 111.8 539.111 115.21 546.491 115.21Z" fill="#242424"/>
<path d="M656.142 39.1696L620.142 139.89H595.712L605.082 116.77L576.712 39.1696H603.802L610.892 65.6996C612.592 71.9396 615.722 85.1296 616.572 92.2296C617.572 85.1296 620.682 71.9396 622.382 65.4196L629.382 39.1696H656.142Z" fill="#242424"/>
<path d="M692.462 9.7196H666.932V113.64H692.462V9.7196Z" fill="#242424"/>
<path d="M782.672 39.1696L746.672 139.89H722.252L731.612 116.77L703.242 39.1696H730.332L737.422 65.6996C739.132 71.9396 742.252 85.1296 743.102 92.2296C744.102 85.1296 747.212 71.9396 748.912 65.4196L755.912 39.1696H782.672Z" fill="#242424"/>
<path d="M64.1815 1.85957C59.9002 0.028852 55.1655 -0.464714 50.5987 0.443652C46.0319 1.35202 41.8464 3.61987 38.5915 6.94957C35.2666 10.2075 33.002 14.3928 32.0939 18.9584C31.1858 23.5239 31.6764 28.2573 33.5015 32.5396C35.2405 36.8543 38.2411 40.5439 42.111 43.1256C45.9809 45.7073 50.5398 47.061 55.1915 47.0096H78.6715V23.5496C78.7227 18.8952 77.3666 14.334 74.781 10.4636C72.1954 6.59321 68.5008 3.59419 64.1815 1.85957V1.85957Z" fill="#FFCB00"/>
<path d="M149.732 31.0096C144.239 25.5215 137.243 21.784 129.627 20.2691C122.012 18.7541 114.118 19.5296 106.943 22.4977C99.7679 25.4657 93.6332 30.4932 89.3133 36.9453C84.9935 43.3974 82.6823 50.9849 82.6715 58.7496V98.0096H122.012C129.799 98.0918 137.43 95.8208 143.905 91.4939C150.38 87.167 155.398 80.9859 158.301 73.7596C161.337 66.5983 162.143 58.6883 160.614 51.062C159.085 43.4358 155.293 36.4476 149.732 31.0096V31.0096Z" fill="#FF7162"/>
<path d="M127.852 116.53C126.113 112.21 123.112 108.515 119.241 105.928C115.369 103.341 110.807 101.983 106.152 102.03H82.6715V125.51C82.6225 130.165 83.9806 134.726 86.5679 138.596C89.1552 142.467 92.8511 145.465 97.1715 147.2C100.062 148.415 103.166 149.044 106.302 149.05C110.151 149.01 113.931 148.029 117.313 146.191C120.695 144.353 123.575 141.714 125.702 138.505C127.828 135.296 129.136 131.616 129.51 127.785C129.885 123.954 129.316 120.089 127.852 116.53V116.53Z" fill="#0DCF82"/>
<path d="M3.10152 75.2796C0.0453598 82.4433 -0.776403 90.363 0.743827 98.0016C2.26406 105.64 6.05543 112.642 11.6215 118.09C15.2126 121.748 19.4944 124.658 24.2185 126.649C28.9425 128.64 34.0149 129.674 39.1415 129.69C44.3888 129.678 49.5819 128.628 54.4215 126.6C61.6486 123.697 67.8306 118.68 72.1576 112.204C76.4847 105.729 78.7551 98.0973 78.6715 90.3096V51.0096H39.3915C31.6018 50.9289 23.9694 53.2029 17.4939 57.5335C11.0185 61.8641 6.002 68.0496 3.10152 75.2796V75.2796Z" fill="#A259FE"/>
</svg>
