<svg width="1600" height="1200" viewBox="0 0 1600 1200" fill="none" xmlns="http://www.w3.org/2000/svg">
<path d="M1084.8 284.4C1085 287.5 1085.1 290.6 1085.3 293.6C1085.3 294.2 1085.7 295 1086.4 295C1170.6 306.6 1255.5 296.8 1340 297C1363.9 297 1387.7 297.9 1411.5 300.2C1412.1 300.3 1412.8 299.7 1412.9 299.1C1413.7 295 1414.6 290.9 1415.4 286.8C1415.8 284.9 1412.9 284.1 1412.5 286C1411.7 290.1 1410.8 294.2 1410 298.3C1410.5 297.9 1411 297.6 1411.4 297.2C1327.7 289 1243.7 299.3 1159.8 297.5C1135.5 297 1111.2 295.4 1087.1 292.1C1087.5 292.6 1087.8 293.1 1088.2 293.5C1088 290.4 1087.9 287.3 1087.7 284.3C1087.7 282.5 1084.7 282.5 1084.8 284.4Z" fill="#E8E8E8"/>
<path d="M1087.3 285.9C1171.9 285.9 1256.6 285.9 1341.2 285.9C1365.2 285.9 1389.2 285.9 1413.2 285.9C1415.1 285.9 1415.1 282.9 1413.2 282.9C1328.6 282.9 1243.9 282.9 1159.3 282.9C1135.3 282.9 1111.3 282.9 1087.3 282.9C1085.4 282.9 1085.4 285.9 1087.3 285.9Z" fill="#E8E8E8"/>
<path d="M1105.5 283.5C1108 247.6 1110.1 211.6 1113.2 175.8C1113.6 171.1 1114.1 166.5 1114.9 161.9C1115.2 160.2 1115.3 156.7 1116.3 155.3C1117.6 153.5 1120.4 153.5 1122.4 153.2C1127 152.4 1134.7 149.6 1137.9 154.3C1138.8 155.7 1139 158.6 1139.3 160.3C1139.9 163.3 1140.3 166.3 1140.6 169.3C1142.2 186.9 1139.9 204.8 1138.6 222.4C1137.1 242.8 1135.6 263.2 1134.1 283.6C1134 285.5 1137 285.5 1137.1 283.6C1139.3 254.4 1141.7 225.3 1143.5 196.1C1144.3 182.7 1144.7 169 1141.4 155.8C1140.5 152.1 1139.1 149 1134.9 148.6C1128.5 148.1 1121.1 150.3 1114.9 151.6C1114.4 151.7 1114 152.2 1113.9 152.6C1108.6 173.3 1108.8 195.6 1107.3 216.8C1105.7 239 1104.2 261.3 1102.6 283.5C1102.4 285.4 1105.4 285.4 1105.5 283.5Z" fill="#E8E8E8"/>
<path d="M1142.7 193.2C1154.9 223.9 1167.8 254.3 1181.3 284.4C1182.1 286.2 1184.7 284.6 1183.9 282.9C1170.5 253 1157.7 222.8 1145.6 192.4C1144.9 190.6 1142 191.4 1142.7 193.2Z" fill="#E8E8E8"/>
<path d="M1145.3 177.1C1147.8 170 1155.5 166.1 1162.7 168.1C1164.6 168.6 1165.4 165.7 1163.5 165.2C1154.7 162.7 1145.4 167.7 1142.4 176.3C1141.8 178.2 1144.7 178.9 1145.3 177.1Z" fill="#E8E8E8"/>
<path d="M1162.7 168.7C1182.5 207.1 1202.2 245.6 1222 284C1222.9 285.7 1225.5 284.2 1224.6 282.5C1204.8 244.1 1185.1 205.6 1165.3 167.2C1164.4 165.4 1161.8 166.9 1162.7 168.7Z" fill="#E8E8E8"/>
<path d="M1214.8 142.9C1218 189.4 1221.2 235.9 1224.3 282.4C1224.4 284.3 1227.4 284.3 1227.3 282.4C1224.1 235.9 1220.9 189.4 1217.8 142.9C1217.7 141 1214.7 141 1214.8 142.9Z" fill="#E8E8E8"/>
<path d="M1217.4 144.5C1222.5 139.9 1229.4 139.9 1235.8 141C1238.4 141.4 1241.2 141.9 1243.7 142.8C1248.3 144.5 1247.6 148.7 1247.8 152.8C1248.4 167.1 1248.9 181.4 1249.5 195.7C1250.6 224.6 1251.8 253.6 1252.9 282.5C1253 284.4 1256 284.4 1255.9 282.5C1254.5 247.9 1253.2 213.3 1251.8 178.8C1251.5 170.2 1251.1 161.5 1250.8 152.9C1250.6 148.5 1251.2 143.1 1246.6 140.7C1241.8 138.2 1234.4 137.3 1229 137.4C1223.8 137.5 1219.2 138.9 1215.4 142.4C1213.9 143.6 1216 145.8 1217.4 144.5Z" fill="#E8E8E8"/>
<path d="M1165.1 167C1174.6 167.6 1183.9 170.4 1193 173C1201.4 175.4 1209.6 178.4 1216.7 183.6C1218.3 184.7 1219.8 182.1 1218.2 181C1210.8 175.7 1202.4 172.6 1193.7 170.1C1184.3 167.4 1174.8 164.7 1165 164C1163.1 163.8 1163.1 166.8 1165.1 167Z" fill="#E8E8E8"/>
<path d="M1251.3 161.7C1255.7 160.6 1260.6 159.5 1265.2 160.4C1272 161.8 1273.4 167.8 1273.7 173.9C1274.2 186.2 1274.4 198.4 1274.7 210.7C1275.3 234.9 1275.6 259.1 1275.7 283.3C1275.7 285.2 1278.7 285.2 1278.7 283.3C1278.6 254.4 1278.2 225.6 1277.4 196.8C1277.2 189.8 1277 182.9 1276.8 175.9C1276.6 171.3 1276.7 166.2 1273.9 162.3C1268.7 155 1258 156.8 1250.6 158.7C1248.6 159.3 1249.4 162.2 1251.3 161.7Z" fill="#E8E8E8"/>
<path d="M1273.2 145.9C1273.2 154.9 1273.2 163.8 1273.2 172.8C1273.2 174.7 1276.2 174.7 1276.2 172.8C1276.2 163.8 1276.2 154.9 1276.2 145.9C1276.2 144 1273.2 144 1273.2 145.9Z" fill="#E8E8E8"/>
<path d="M1277.6 147C1278.4 147.3 1279.3 147.6 1280.1 147.9C1280.2 148.6 1280.3 149.3 1280.4 150.1C1280.6 151.7 1280.6 153.4 1280.8 155.1C1281 157.7 1281.2 160.4 1281.4 163C1281.8 168.6 1282.1 174.3 1282.4 179.9C1283.1 191.5 1283.6 203.1 1284 214.7C1284.9 237.6 1285.2 260.5 1285.2 283.4C1285.2 285.3 1288.2 285.3 1288.2 283.4C1288.2 254.9 1287.6 226.3 1286.3 197.8C1285.6 183.9 1284.8 170 1283.8 156.1C1283.6 152.7 1284.2 146.5 1281.1 144.1C1279 142.5 1276.1 143.1 1275 145.5C1274.3 147.3 1276.8 148.8 1277.6 147Z" fill="#E8E8E8"/>
<path d="M1130.2 299.1C1133.3 304.3 1136.3 312.1 1141.3 315.8C1146.2 319.5 1152.2 316.2 1157.6 318.1C1159.4 318.7 1160.2 315.8 1158.4 315.2C1153.6 313.5 1148 316.2 1143.7 313.5C1138.8 310.5 1135.7 302.4 1132.8 297.5C1131.8 295.9 1129.2 297.4 1130.2 299.1Z" fill="#E8E8E8"/>
<path d="M1161.6 300.4C1161.2 305.6 1159.6 310.3 1157 314.7C1156 316.4 1158.6 317.9 1159.6 316.2C1162.6 311.3 1164.2 306 1164.6 300.4C1164.8 298.5 1161.8 298.5 1161.6 300.4Z" fill="#E8E8E8"/>
<path d="M1153.1 302.9C1154 307.5 1154.9 312.1 1155.9 316.7C1156.3 318.6 1159.2 317.8 1158.8 315.9C1157.9 311.3 1157 306.7 1156 302.1C1155.6 300.2 1152.7 301 1153.1 302.9Z" fill="#E8E8E8"/>
<path d="M1156.7 302.8C1156.9 302.8 1157.1 302.9 1157.3 303C1157.6 303.6 1157.6 304.2 1157.5 304.8C1157.4 305.5 1157.1 306.2 1156.9 306.9C1156.5 308.3 1156.4 309.6 1156.8 311C1157.4 312.9 1160 312.1 1159.7 310.2C1159.2 307.5 1159.6 304.8 1160.7 302.3C1159.7 302.2 1158.7 302 1157.8 301.9C1157.5 305 1157.3 308.2 1157 311.3C1156.8 313.2 1159.8 313.2 1160 311.3C1160.3 308.2 1160.5 305 1160.8 301.9C1161 300.1 1158.4 300.1 1157.9 301.5C1156.6 304.6 1156.4 307.8 1156.9 311C1157.9 310.7 1158.8 310.5 1159.8 310.2C1158.9 307.2 1162.4 303.5 1159.4 300.8C1157.6 299.2 1154.7 299.8 1154 302.1C1153.2 303.9 1156.1 304.7 1156.7 302.8Z" fill="#E8E8E8"/>
<path d="M1313.4 280.9C1312.5 277.2 1312.1 273.6 1312.4 269.8C1311.9 270.3 1311.4 270.8 1310.9 271.3C1328.6 270.4 1346.3 269.3 1364 268.9C1372.9 268.7 1381.8 268.7 1390.7 268.9C1392.7 268.9 1394.7 269 1396.6 269C1398.6 269.1 1402.7 268.4 1404.5 269.3C1408.5 271.2 1406.8 278.9 1406.8 282.4C1406.8 284.3 1409.8 284.3 1409.8 282.4C1409.8 277.7 1412.2 267.7 1405.8 266.4C1401.4 265.5 1396.2 266 1391.7 265.9C1386.1 265.8 1380.5 265.7 1374.9 265.8C1353.6 265.9 1332.3 267.2 1310.9 268.3C1310.1 268.3 1309.4 269 1309.4 269.8C1309.2 273.9 1309.5 277.8 1310.6 281.7C1310.9 283.6 1313.8 282.8 1313.4 280.9Z" fill="#E8E8E8"/>
<path d="M1324.5 250.8C1325.7 256.3 1326.6 261.8 1327 267.4C1327.1 269.3 1330.1 269.3 1330 267.4C1329.6 261.5 1328.7 255.7 1327.4 250C1327 248.2 1324.1 249 1324.5 250.8Z" fill="#E8E8E8"/>
<path d="M1326.5 252.7C1338.6 251.7 1350.7 250.6 1362.8 251.1C1374.2 251.6 1385.7 255.3 1397.1 254.1C1396.6 253.6 1396.1 253.1 1395.6 252.6C1395.2 257.9 1395.8 262.9 1397.5 268C1398.1 269.8 1401 269 1400.4 267.2C1398.8 262.4 1398.2 257.7 1398.6 252.6C1398.7 251.8 1397.9 251 1397.1 251.1C1385.7 252.2 1374.2 248.5 1362.8 248.1C1350.7 247.6 1338.5 248.7 1326.5 249.7C1324.6 249.8 1324.6 252.8 1326.5 252.7Z" fill="#E8E8E8"/>
<path d="M1224.7 563C1224.7 567.2 1224.7 571.3 1224.7 575.5C1224.7 577.4 1227.7 577.4 1227.7 575.5C1227.7 571.3 1227.7 567.2 1227.7 563C1227.7 561.1 1224.7 561.1 1224.7 563Z" fill="#E8E8E8"/>
<path d="M1226.2 562C1304 562 1381.8 562 1459.6 562C1461.5 562 1461.5 559 1459.6 559C1381.8 559 1304 559 1226.2 559C1224.2 559 1224.2 562 1226.2 562Z" fill="#E8E8E8"/>
<path d="M1228.6 575.8C1305.2 575.8 1381.7 575.8 1458.3 575.8C1460.2 575.8 1460.2 572.8 1458.3 572.8C1381.7 572.8 1305.2 572.8 1228.6 572.8C1226.7 572.8 1226.7 575.8 1228.6 575.8Z" fill="#E8E8E8"/>
<path d="M1458.1 563C1458.1 565.9 1458.1 568.8 1458.1 571.7C1458.1 573.6 1461.1 573.6 1461.1 571.7C1461.1 568.8 1461.1 565.9 1461.1 563C1461.1 561.1 1458.1 561.1 1458.1 563Z" fill="#E8E8E8"/>
<path d="M1247.8 529.3C1250.4 539.6 1252.8 550 1254.8 560.4C1255.2 562.3 1258.1 561.5 1257.7 559.6C1255.7 549.2 1253.4 538.8 1250.7 528.5C1250.2 526.6 1247.3 527.4 1247.8 529.3Z" fill="#E8E8E8"/>
<path d="M1299.8 528.4C1297.4 538.7 1295.4 549 1293.9 559.4C1293.6 561.3 1296.5 562.1 1296.8 560.2C1298.3 549.8 1300.3 539.4 1302.7 529.2C1303.1 527.3 1300.2 526.5 1299.8 528.4Z" fill="#E8E8E8"/>
<path d="M1239.6 523.7C1239.8 528.9 1247.6 528.5 1251.4 528.7C1260 529.1 1268.7 527.8 1277.3 527.3C1281.6 527 1285.9 526.9 1290.2 527.3C1293.7 527.6 1297.5 528.8 1300.9 528.1C1304.7 527.3 1307.1 523.7 1304.9 520.2C1303.9 518.6 1301.3 520.1 1302.3 521.7C1305.1 526.4 1295.6 524.9 1294.7 524.8C1292.6 524.5 1290.4 524.3 1288.3 524.2C1283.4 523.9 1278.4 524.2 1273.5 524.6C1270.3 524.8 1242.7 528.1 1242.6 523.7C1242.6 521.7 1239.6 521.7 1239.6 523.7Z" fill="#E8E8E8"/>
<path d="M1243.1 523.3C1241.3 517.7 1256.8 518.3 1259.4 518.2C1264 518 1268.7 517.8 1273.3 517.6C1275.8 517.5 1301.8 516.8 1301.1 518.7C1300.5 520.5 1303.4 521.3 1304 519.5C1307 510.6 1274.5 514.5 1270.3 514.7C1262.5 515 1253.8 514.3 1246.2 515.8C1242.2 516.6 1238.8 519.6 1240.2 524C1240.8 525.9 1243.7 525.1 1243.1 523.3Z" fill="#E8E8E8"/>
<path d="M1256.4 515C1251.8 512.9 1247.7 509.9 1244.5 506.1C1243.2 504.5 1234 491.2 1239.4 490.4C1240.3 490.3 1240.8 488.9 1240.3 488.2C1237.4 484 1236.2 478.6 1234.7 473.8C1233 468.6 1231.4 463.4 1229.7 458.3C1229.4 457.2 1228.9 456.2 1228.7 455.1C1228.2 453 1227.9 453 1230.4 452.8C1233.1 452.6 1234.5 454.7 1236.3 456.5C1239.7 459.9 1242.7 463.6 1245.4 467.5C1255.5 482.1 1261.1 499.3 1265.3 516.4C1265.8 518.3 1268.7 517.5 1268.2 515.6C1262.8 493.8 1254.9 471.4 1238.9 454.9C1236.7 452.6 1232.5 447.3 1228.8 447.9C1226 448.4 1225.2 451.4 1225.4 453.9C1225.8 459.5 1228.8 465.6 1230.6 471C1232.6 477.2 1233.9 484.4 1237.7 489.8C1238 489.1 1238.3 488.3 1238.6 487.6C1232 488.6 1235.8 497.8 1237.6 501.4C1241.4 508.7 1247.5 514.3 1254.9 517.8C1256.6 518.4 1258.1 515.8 1256.4 515Z" fill="#E8E8E8"/>
<path d="M1259.8 487.6C1259.5 474.9 1259.2 461.7 1263.5 449.6C1265.6 443.7 1268.8 438.4 1272.5 433.4C1273.4 432.1 1274.4 430 1275.8 429.2C1276.8 427.6 1278.3 427.4 1280.2 428.7C1282.6 428.1 1283.8 428.7 1283.8 430.5C1285 433.2 1284.6 437.8 1284.6 440.6C1284.6 447.3 1283 453.5 1281.4 459.9C1280.8 462.1 1280.3 464.4 1280.5 466.6C1280.7 469.2 1282.1 471.2 1282.8 473.6C1284.8 480.4 1281.3 487.4 1278.9 493.6C1276.5 500.1 1274 506.6 1271.6 513.2C1270.9 515 1273.8 515.8 1274.5 514C1277.7 505.4 1281.1 496.9 1284.1 488.2C1286.2 482.1 1287.2 476.8 1284.8 470.8C1281.6 462.7 1286.7 453.6 1287.4 445.3C1287.8 439.9 1288.7 430.7 1285.2 425.9C1277.6 415.4 1265.5 437.8 1263.1 442.8C1256.3 456.8 1256.4 472.5 1256.8 487.7C1256.9 489.6 1259.9 489.6 1259.8 487.6Z" fill="#E8E8E8"/>
<path d="M1234.6 463C1244.5 476.9 1250.4 493.6 1257.3 509.1C1258.1 510.9 1260.7 509.3 1259.9 507.6C1253.1 492 1247.1 475.4 1237.2 461.5C1236.1 459.9 1233.5 461.4 1234.6 463Z" fill="#E8E8E8"/>
<path d="M1262.2 455.9C1262.6 461.2 1264.4 465.9 1267.7 470C1268.9 471.5 1271 469.4 1269.8 467.9C1267.1 464.4 1265.5 460.3 1265.2 455.9C1265.1 454 1262.1 454 1262.2 455.9Z" fill="#E8E8E8"/>
<path d="M1275.8 455.2C1278.2 451.6 1280.7 448 1283.1 444.4C1284.2 442.8 1281.6 441.3 1280.5 442.9C1278.1 446.5 1275.6 450.1 1273.2 453.7C1272.2 455.3 1274.8 456.8 1275.8 455.2Z" fill="#E8E8E8"/>
<path d="M1305.6 453.2C1303.1 457.2 1299.5 460.3 1296.2 463.5C1292.6 466.9 1289 470.4 1285.4 473.8C1284 475.1 1286.1 477.3 1287.5 475.9C1294.4 469.3 1303.1 462.9 1308.2 454.7C1309.2 453.1 1306.6 451.6 1305.6 453.2Z" fill="#E8E8E8"/>
<path d="M1304.3 457.2C1304.5 462.5 1313.3 472.3 1306.5 475.5C1305.6 476 1305.6 477.2 1306.2 477.9C1308.5 480.7 1307 484.9 1306.7 488.2C1306.4 491.9 1306.7 495.6 1305.7 499.2C1303.9 506.1 1297.5 510.2 1291.8 513.8C1290.2 514.8 1291.7 517.4 1293.3 516.4C1300.2 512 1307.3 507 1308.9 498.4C1309.7 493.8 1309.7 489 1310.1 484.4C1310.5 481.1 1310.4 478.5 1308.2 475.9C1308.1 476.7 1308 477.5 1307.9 478.3C1317.4 473.8 1307.4 463.6 1307.2 457.4C1307.2 455.3 1304.2 455.3 1304.3 457.2Z" fill="#E8E8E8"/>
<path d="M1299.5 471.9C1292.6 483 1286.7 494.6 1281.8 506.8C1281.1 508.6 1284 509.4 1284.7 507.6C1289.5 495.7 1295.3 484.3 1302.1 473.4C1303.1 471.7 1300.5 470.2 1299.5 471.9Z" fill="#E8E8E8"/>
<path d="M1253.1 549.8C1257.1 555.2 1262.6 558.9 1269.2 560.3C1271.1 560.7 1271.9 557.8 1270 557.4C1264.2 556.2 1259.2 553.1 1255.7 548.3C1254.6 546.8 1252 548.3 1253.1 549.8Z" fill="#E8E8E8"/>
<path d="M1251.4 537.5C1261.7 545.4 1272.6 556.7 1285.8 559.4C1287.7 559.8 1288.5 556.9 1286.6 556.5C1273.8 553.9 1263 542.6 1252.9 534.9C1251.4 533.7 1249.9 536.3 1251.4 537.5Z" fill="#E8E8E8"/>
<path d="M1259.3 529.9C1265.5 535 1271.5 540.2 1277.8 545.1C1280.5 547.2 1283.3 549.2 1286.6 550.5C1289.7 551.8 1293 552.4 1295.8 554.4C1297.4 555.5 1298.9 552.9 1297.3 551.8C1295.1 550.3 1292.9 549.6 1290.5 548.7C1286.4 547.3 1283.1 545.4 1279.7 542.7C1273.5 537.9 1267.5 532.8 1261.5 527.8C1259.9 526.6 1257.8 528.7 1259.3 529.9Z" fill="#E8E8E8"/>
<path d="M1275.7 528.5C1281.5 534.5 1288.5 538.9 1296.5 541.5C1298.3 542.1 1299.1 539.2 1297.3 538.6C1289.8 536.1 1283.3 532 1277.8 526.3C1276.5 525 1274.3 527.1 1275.7 528.5Z" fill="#E8E8E8"/>
<path d="M1349.3 557.6C1348.7 556 1347.8 553.9 1347.9 552.2C1348.3 547.8 1351.3 547.4 1354.2 546.9C1358.4 546.1 1362.8 546 1367.1 546C1374.4 545.9 1381.8 546.5 1389.1 546.8C1396.4 547 1403.6 546.6 1410.9 546C1413.9 545.7 1419.2 544.5 1422.1 545.5C1425.1 546.6 1425.9 548.1 1426 550.9C1426.1 553.1 1426.1 555.3 1426.2 557.6C1426.3 559.5 1429.3 559.5 1429.2 557.6C1429.1 554.2 1430.1 548.2 1428.4 545C1426.8 542.2 1423.1 542.5 1420.3 542.5C1408.9 542.5 1397.8 544.2 1386.3 543.7C1375.7 543.3 1365 542.4 1354.5 544C1345.9 545.3 1343.7 550.6 1346.6 558.6C1347 560.2 1349.9 559.4 1349.3 557.6Z" fill="#E8E8E8"/>
<path d="M1370.5 541.5C1371.3 539.7 1372 537.9 1372.8 536.1C1373.7 536 1374.6 535.9 1375.5 535.7C1376.7 535.6 1377.8 535.7 1379 535.6C1381.6 535.6 1384.1 535.5 1386.7 535.5C1392.2 535.4 1397.6 535.4 1403.1 535.3C1408.2 535.2 1413.4 535.2 1418.5 535.1C1419.8 535.1 1421.1 535.1 1422.4 535C1424 535 1424.5 534.6 1425 535.8C1425.6 537.3 1424.5 541.5 1424.3 543.1C1424.1 545 1427.1 545 1427.3 543.1C1427.5 540.7 1429 535.7 1427.8 533.5C1426.8 531.7 1425.3 532 1423.3 532C1413.7 532 1404 532.3 1394.4 532.4C1389.9 532.5 1385.4 532.5 1380.9 532.6C1377.5 532.6 1373.3 532.2 1370.2 533.8C1366.6 535.7 1364.9 540.6 1368.4 543.5C1369.9 544.8 1372 542.7 1370.5 541.5Z" fill="#E8E8E8"/>
<path d="M1391.1 529.3C1388.5 525.8 1399.4 526.2 1400.1 526.1C1402.5 525.9 1410.7 524.4 1409.1 529.8C1408.5 531.7 1411.4 532.4 1412 530.6C1412.7 528.2 1411.9 526 1410 524.4C1406.7 521.7 1402.6 523 1398.7 523.2C1395.6 523.3 1391.9 522.3 1389.4 524.7C1387.6 526.3 1387.1 528.8 1388.5 530.8C1389.7 532.3 1392.3 530.8 1391.1 529.3Z" fill="#E8E8E8"/>
<path d="M1238.1 578C1241.9 583.2 1246.4 587.5 1251.7 591.1C1253.3 592.2 1254.8 589.6 1253.2 588.5C1248.4 585.2 1244.1 581.2 1240.7 576.4C1239.5 574.9 1236.9 576.4 1238.1 578Z" fill="#E8E8E8"/>
<path d="M1251.3 590.1C1254.6 590.1 1257.9 590.1 1261.2 590.1C1263.1 590.1 1266.2 590.6 1267.9 589.7C1269.2 589 1269.6 587.4 1270.2 586.2C1271.8 583 1273.7 580 1275.9 577.1C1277.1 575.6 1275 573.5 1273.8 575C1272.7 576.3 1271.7 577.7 1270.7 579.1C1269.5 581 1268.7 583.7 1267.3 585.4C1264.5 588.7 1255.4 587.2 1251.3 587.1C1249.4 587.1 1249.4 590.1 1251.3 590.1Z" fill="#E8E8E8"/>
<path d="M1262.4 577.8C1263.2 580.8 1264 583.9 1264.9 586.9C1265.4 588.8 1268.3 588 1267.8 586.1C1267 583.1 1266.2 580 1265.3 577C1264.8 575.1 1261.9 575.9 1262.4 577.8Z" fill="#E8E8E8"/>
<path d="M1384.3 577.3C1385.9 580.6 1387.6 583.8 1389.7 586.8C1390.8 588.4 1392.2 590.9 1394.1 591.8C1396.1 592.8 1398.9 592 1400.9 591.8C1404.5 591.4 1408.1 591.1 1411.7 590.7C1413.6 590.5 1413.6 587.5 1411.7 587.7C1409.3 587.9 1406.9 588.2 1404.5 588.4C1402.4 588.6 1399.3 589.5 1397.3 589.1C1392.1 588.1 1388.9 579.9 1386.9 575.7C1386 574 1383.4 575.5 1384.3 577.3Z" fill="#E8E8E8"/>
<path d="M1411.8 574.8C1410.6 579.1 1410 583.5 1410.1 587.9C1410.2 589.8 1413.2 589.8 1413.1 587.9C1413 583.7 1413.5 579.6 1414.6 575.6C1415.2 573.8 1412.3 573 1411.8 574.8Z" fill="#E8E8E8"/>
<path d="M1413.1 589.4C1417.1 585.6 1420.9 581.6 1424.6 577.5C1425.9 576.1 1423.8 573.9 1422.5 575.4C1418.8 579.5 1415 583.5 1411 587.3C1409.6 588.6 1411.7 590.7 1413.1 589.4Z" fill="#E8E8E8"/>
<path d="M770.9 284.4C770.9 312.6 770.9 340.7 770.9 368.9C770.9 370.8 773.9 370.8 773.9 368.9C773.9 340.7 773.9 312.6 773.9 284.4C773.9 282.5 770.9 282.5 770.9 284.4Z" fill="#E8E8E8"/>
<path d="M773.3 371.2C809 371.2 844.8 371.2 880.5 371.2C882.4 371.2 882.4 368.2 880.5 368.2C844.8 368.2 809 368.2 773.3 368.2C771.3 368.2 771.3 371.2 773.3 371.2Z" fill="#E8E8E8"/>
<path d="M773.3 285.9C808 285.9 842.6 285.9 877.3 285.9C879.2 285.9 879.2 282.9 877.3 282.9C842.6 282.9 808 282.9 773.3 282.9C771.3 282.9 771.3 285.9 773.3 285.9Z" fill="#E8E8E8"/>
<path d="M877.3 284.4C877.3 312.6 877.3 340.7 877.3 368.9C877.3 370.8 880.3 370.8 880.3 368.9C880.3 340.7 880.3 312.6 880.3 284.4C880.3 282.5 877.3 282.5 877.3 284.4Z" fill="#E8E8E8"/>
<path d="M826.7 281.9C826.6 280.6 826.8 279.4 827.4 278.2C827.7 277.5 828.9 275.7 829.6 276.2C830.4 276.7 830.7 279 830.8 279.8C831.1 281.3 831.1 282.8 830.9 284.3C830.7 286.2 833.7 286.2 833.9 284.3C834.1 281.7 833.9 279.1 833 276.6C832.4 275 831.6 273.1 829.7 272.9C825.6 272.4 823.5 278.7 823.7 281.8C823.8 283.9 826.8 283.9 826.7 281.9Z" fill="#E8E8E8"/>
<path d="M776.6 294.1C776.6 316.6 776.6 339 776.6 361.5C776.6 363.4 779.6 363.4 779.6 361.5C779.6 339 779.6 316.6 779.6 294.1C779.6 292.2 776.6 292.2 776.6 294.1Z" fill="#E8E8E8"/>
<path d="M778.1 363C809.5 363 840.9 363 872.3 363C874.2 363 874.2 360 872.3 360C840.9 360 809.5 360 778.1 360C776.2 360 776.2 363 778.1 363Z" fill="#E8E8E8"/>
<path d="M874.7 360.7C874.7 338.2 874.7 315.8 874.7 293.3C874.7 291.4 871.7 291.4 871.7 293.3C871.7 315.8 871.7 338.2 871.7 360.7C871.7 362.7 874.7 362.7 874.7 360.7Z" fill="#E8E8E8"/>
<path d="M778.9 296.4C809.2 296.4 839.5 296.4 869.9 296.4C871.8 296.4 871.8 293.4 869.9 293.4C839.6 293.4 809.3 293.4 778.9 293.4C777 293.4 777 296.4 778.9 296.4Z" fill="#E8E8E8"/>
<path d="M779.4 347.1C791.1 343.6 803 340.5 814.6 345.9C822.9 349.8 830.1 355.7 839.4 357.4C841.3 357.7 842.1 354.9 840.2 354.5C829.6 352.5 821.6 344.8 811.5 341.4C800.6 337.8 789.2 341 778.6 344.2C776.8 344.8 777.6 347.7 779.4 347.1Z" fill="#E8E8E8"/>
<path d="M818.4 345.4C832.7 340.4 847.6 338.6 862.6 340.1C864.5 340.3 864.5 337.3 862.6 337.1C847.3 335.6 832.1 337.4 817.6 342.5C815.8 343.2 816.6 346.1 818.4 345.4Z" fill="#E8E8E8"/>
<path d="M821.5 322.2C820.4 320.3 820.7 317.5 822.6 316.2C824.3 315 827 315.5 828.2 317.1C829.4 318.8 828.7 321.5 826.8 322.5C824.6 323.6 822.1 321.5 822.1 319.3C822.1 317.4 819.1 317.4 819.1 319.3C819 323.3 823.1 326.7 827.1 325.6C830.8 324.6 832.8 319.9 831.2 316.5C829.6 312.9 824.8 311.6 821.4 313.4C817.7 315.4 816.8 320.3 818.8 323.8C819.9 325.4 822.4 323.9 821.5 322.2Z" fill="#E8E8E8"/>
<path d="M1308.6 298.9C1312.2 303.7 1312.9 310.2 1317.3 314.4C1321.4 318.4 1326.3 317.8 1331.3 316C1333.1 315.4 1332.3 312.5 1330.5 313.1C1327.8 314 1324.7 315 1321.9 313.9C1319.5 312.9 1317.9 310.7 1316.7 308.4C1314.8 304.7 1313.7 300.7 1311.2 297.3C1310 295.8 1307.4 297.3 1308.6 298.9Z" fill="#E8E8E8"/>
<path d="M1330.9 314.8C1335.7 310.7 1339.9 306 1343.5 300.8C1344.6 299.2 1342 297.7 1340.9 299.3C1337.5 304.3 1333.4 308.8 1328.8 312.7C1327.3 313.9 1329.4 316.1 1330.9 314.8Z" fill="#E8E8E8"/>
<path d="M1323.6 297.8C1325 301.1 1325.6 304.5 1325.5 308C1325.4 309.9 1328.4 309.9 1328.5 308C1328.6 303.9 1327.8 300 1326.2 296.3C1325.5 294.5 1322.9 296 1323.6 297.8Z" fill="#E8E8E8"/>
<path d="M1243.5 689C1243.5 702.3 1243.5 715.7 1243.5 729C1243.5 730.9 1246.5 730.9 1246.5 729C1246.5 715.7 1246.5 702.3 1246.5 689C1246.5 687.1 1243.5 687.1 1243.5 689Z" fill="#E8E8E8"/>
<path d="M1207 734.5C1242.3 734.5 1277.7 734.5 1313 734.5C1314.9 734.5 1314.9 731.5 1313 731.5C1277.7 731.5 1242.3 731.5 1207 731.5C1205.1 731.5 1205.1 734.5 1207 734.5Z" fill="#E8E8E8"/>
<path d="M1264.5 737C1264.5 745.3 1264.5 753.7 1264.5 762C1264.5 763.9 1267.5 763.9 1267.5 762C1267.5 753.7 1267.5 745.3 1267.5 737C1267.5 735.1 1264.5 735.1 1264.5 737Z" fill="#E8E8E8"/>
<path d="M1206 766.5C1237.3 766.5 1268.7 766.5 1300 766.5C1301.9 766.5 1301.9 763.5 1300 763.5C1268.7 763.5 1237.3 763.5 1206 763.5C1204.1 763.5 1204.1 766.5 1206 766.5Z" fill="#E8E8E8"/>
<path d="M1229.5 769C1229.5 775.3 1229.5 781.7 1229.5 788C1229.5 789.9 1232.5 789.9 1232.5 788C1232.5 781.7 1232.5 775.3 1232.5 769C1232.5 767.1 1229.5 767.1 1229.5 769Z" fill="#E8E8E8"/>
<path d="M1239.5 284.8C1239.5 280.6 1238.7 275.3 1239.5 271.2C1240.6 265.4 1248.7 266.5 1253.4 266.2C1255.3 266.1 1255.3 263.1 1253.4 263.2C1249.6 263.4 1245.6 263.4 1241.8 264C1240.1 264.3 1238.6 264.8 1237.6 266.3C1236.4 268.1 1236.6 270.6 1236.6 272.7C1236.6 276.7 1236.6 280.8 1236.6 284.8C1236.5 286.8 1239.5 286.8 1239.5 284.8Z" fill="#E8E8E8"/>
<path d="M1221.9 173.1C1231 170.6 1240.1 171.2 1248.8 174.7C1250.6 175.4 1251.4 172.5 1249.6 171.8C1240.4 168.1 1230.7 167.6 1221.1 170.2C1219.2 170.8 1220 173.7 1221.9 173.1Z" fill="#E8E8E8"/>
<path d="M1218.2 164.1C1226.2 158.6 1235.8 157.6 1244.8 161.2C1246.6 161.9 1247.4 159 1245.6 158.3C1236 154.4 1225.2 155.6 1216.7 161.5C1215.1 162.6 1216.6 165.2 1218.2 164.1Z" fill="#E8E8E8"/>
<path d="M1185.7 216.5C1182.5 218.7 1176.4 221.6 1175.5 225.8C1175.1 228 1176.1 230 1176.9 232C1178.3 235.5 1179.7 239 1181.2 242.5C1187 256.2 1193.5 269.6 1200.7 282.6C1201.6 284.3 1204.2 282.8 1203.3 281.1C1197.8 271.1 1192.7 260.9 1188 250.5C1185.5 245 1183.1 239.4 1180.9 233.8C1179.6 230.5 1177.8 227.6 1180.2 224.2C1181.6 222.2 1185.2 220.5 1187.3 219.1C1188.8 218 1187.3 215.4 1185.7 216.5Z" fill="#E8E8E8"/>
<path d="M765.2 706.6C757 712.7 747.1 722.5 743.5 736.5C740.9 746.9 743.4 753 742.5 766.4C741.9 775.7 739.5 788.8 731.8 804.4C714.3 800.8 684.9 797.3 650.2 805.3C629.5 810.1 612.9 817.6 600.7 824.4C602.6 825.6 605.2 827 608.5 827.9C627.2 833 646.9 817.3 647.5 818.4C648.1 819.4 625.5 830 626.7 839.2C627.5 845.4 638.6 848.7 650.1 852.2C659.8 855.1 669 857.9 681.3 856.5C698.2 854.6 709.9 846.1 715.1 841.7C720.1 844.2 727.5 847.5 736.8 850.4C753.9 855.6 777.5 862.8 793.2 853C803.4 846.6 806.5 831.6 812.3 801.8C819.3 765.5 822.6 747.3 813.2 732.4C800.9 712.5 775.6 707.9 765.2 706.6Z" fill="white" stroke="#161616" stroke-width="3" stroke-miterlimit="10"/>
<path d="M728.6 805.5C740.7 810 750.7 818.2 757.6 829.1C758.6 830.7 761.2 829.2 760.2 827.6C752.9 816 742.2 807.4 729.4 802.6C727.5 801.9 726.8 804.8 728.6 805.5Z" fill="#161616"/>
<path d="M664.2 825.2C652.3 827.2 642.7 835.2 638.4 846.4C637.7 848.2 640.6 849 641.3 847.2C645.2 837 654.2 829.9 665 828.1C666.9 827.8 666.1 824.9 664.2 825.2Z" fill="#161616"/>
<path d="M678.2 835.2C673.9 837.8 669.9 840.8 666.1 844C663.6 846.2 660.8 848.8 661.4 852.4C662.9 861.9 674.3 859.8 680.5 857.4C682.3 856.7 681.5 853.8 679.7 854.5C677 855.5 674 856.8 671.1 856.7C666.4 856.5 662.2 852 666.2 847.9C670 843.9 675 840.7 679.7 837.7C681.3 836.7 679.8 834.1 678.2 835.2Z" fill="#161616"/>
<path d="M858.5 583.5C853.4 585.2 846.9 587.8 839.6 591.4C837.5 592.4 832.2 595.1 826.5 598.8C817.7 604.4 811.3 610.3 804 617.7C794.7 627.2 785.3 636.7 774.1 651.9C764.7 664.7 750.1 684.8 739.6 714.3C735.4 726 733 736.1 731.6 743.3C737.1 740.1 742.1 738.5 746 737.6C768.5 732.5 790.1 743.9 810.6 754.6C818.3 758.6 824.4 762.5 828.6 765.2C830.8 754.4 833 743.5 835.2 732.7C837.1 723.6 838.9 714.4 840.8 705.3C843.7 702.8 847.6 699.1 851.9 694.3C860 685.1 876.1 666.8 878.3 641.4C881 612.1 863.6 589.7 858.5 583.5Z" fill="#F8D208"/>
<path d="M852.6 584.7C841.9 586.3 832.7 592 824.4 598.6C814.8 606.1 805.8 614.4 797.4 623.2C781 640.2 766.7 659.2 754.9 679.7C753.9 681.4 756.5 682.9 757.5 681.2C768.9 661.4 782.5 643 798.3 626.5C806 618.5 814.1 610.9 822.6 603.8C831.7 596.3 841.4 589.3 853.4 587.5C855.3 587.3 854.5 584.4 852.6 584.7Z" fill="#161616"/>
<path d="M848.4 693.9C841 701.4 833.4 708.7 825.7 715.8C824.3 717.1 826.4 719.2 827.8 717.9C835.5 710.8 843.1 703.5 850.5 696C851.8 694.6 849.7 692.5 848.4 693.9Z" fill="#161616"/>
<path d="M838 707.6C834.5 726.8 831.1 746.1 827.6 765.3C828.3 765 829.1 764.7 829.8 764.4C813.9 753.3 796.2 745 777.4 739.8C762.7 735.8 744 731.9 731.4 743C730 744.3 732.1 746.4 733.5 745.1C746.3 733.7 767 739.7 781.5 744.1C798.2 749.2 813.9 757 828.2 766.9C829 767.4 830.2 766.9 830.4 766C833.9 746.8 837.3 727.5 840.8 708.3C841.2 706.5 838.3 705.7 838 707.6Z" fill="#161616"/>
<path d="M755.6 678.3C745.2 698.6 732.2 719.5 731.3 743C731.2 744.9 734.2 744.9 734.3 743C735.2 720.1 748 699.7 758.2 679.8C759 678.1 756.4 676.6 755.6 678.3Z" fill="#161616"/>
<path opacity="0.4" d="M844.5 640.5C826.6 676.1 816.9 706.1 811.2 727.1C802.9 757.9 800 782.2 778.5 802.4C775 805.7 764.7 815.2 748.5 821.1C714.5 833.4 689.3 816.8 667.9 834.4C665.5 836.4 658.4 841.4 659.2 847.1C660 852.5 667.4 855.3 668.5 855.8C677.3 859.2 686.4 855.7 697.8 851.1C710.7 845.9 709.3 844.1 715.1 843.1C727.3 841 732.9 848.7 749.1 853.8C756 855.9 776.4 862.3 791.1 853.8C801.9 847.5 805.2 835.7 810.4 815.8C814 802.3 817.7 782.6 817.1 757.8C821.1 760.9 825.1 764 829.1 767.1C834.3 724.9 839.4 682.7 844.5 640.5Z" fill="#3D3D3D"/>
<path opacity="0.38" d="M838.5 683.8C824.8 709.7 818.1 731.6 814.5 746.4C807.3 776.1 809.6 790.1 799.8 811C789.3 833.7 772.3 848.1 760.5 856.3C767.1 857.8 783 860.6 794.5 851.6C802.6 845.3 804.7 836.3 807.8 821.6C811.7 803.5 815.8 782.9 819.8 760.3C822.9 762.3 826 764.3 829.1 766.3C832.3 738.9 835.4 711.3 838.5 683.8Z" fill="#3D3D3D"/>
<path d="M856.4 581.5C852.8 605 849.3 628.7 845.9 652.5C832.7 744.8 821.3 835.5 811.7 924.7C811.9 927.7 812.7 932.5 815.7 937.3C818.7 942.2 822.7 944.7 824.6 946C842.8 959 851.9 965.6 861.1 970C905.2 991.3 954 988.8 954 988.8C964.3 988.3 984.8 987 1006.8 978.2C1008 977.7 1016.4 973.8 1033.2 965.9C1048.4 958.8 1051.1 957.4 1054.8 954C1063.6 945.9 1067 935.9 1069.3 928.8C1074.2 913.7 1073.7 900.9 1073.5 897.8C1073.5 897.8 1072.5 872.9 1071.8 727.5C1071.7 697.9 1074.6 654.4 1090.2 600.7C1074 592.8 1058.8 585.5 1040.5 576.7C1027.9 570.6 1016.2 565 999.4 563C994.6 562.4 990.3 562.2 983.9 562.3C957.9 562.5 936.5 566.5 927.3 568.1C909.4 571 885.2 575.4 856.4 581.5Z" fill="#F8D208"/>
<path d="M855.6 585C886.6 578.4 917.9 573.1 949.3 569.2C950.7 569 951.5 567.2 950.1 566.4C949.7 566.2 949.3 565.9 948.8 565.7C947.1 564.7 945.6 567.3 947.3 568.3C947.7 568.5 948.1 568.8 948.6 569C948.9 568.1 949.1 567.1 949.4 566.2C917.7 570.1 886.1 575.4 854.9 582.1C852.9 582.5 853.7 585.4 855.6 585Z" fill="#161616"/>
<path d="M846.3 637.4C835.3 715.8 825.3 794.3 816.3 873C815.2 882.9 814.1 892.7 813 902.6C812.1 911.2 809.6 920.9 810.7 929.5C811.7 937.1 817.7 941.9 823.2 946.5C829.2 951.5 835.5 956.2 842.1 960.5C869.2 978 900.9 988.5 933.1 990.4C971.4 992.6 1009.9 982.8 1042.6 962.8C1044.2 961.8 1042.7 959.2 1041.1 960.2C983.9 995.1 911.1 996.5 852.8 963.4C846.1 959.6 839.6 955.4 833.4 950.8C827.1 946.1 816.9 939.7 814.3 932C813.1 928.3 813.7 924.2 814.1 920.3C814.6 915.4 815.2 910.4 815.7 905.5C816.7 896.3 817.7 887.1 818.8 877.9C823.1 840.4 827.5 803 832.3 765.6C837.7 723.1 843.3 680.6 849.3 638.2C849.5 636.3 846.6 635.5 846.3 637.4Z" fill="#161616"/>
<path d="M993.6 562.1C1011.2 565.6 1027.7 573.7 1044.1 580.6C1060.2 587.4 1078.1 592.9 1092.3 603.3C1093.9 604.4 1095.4 601.8 1093.8 600.7C1079.9 590.5 1062.4 585.1 1046.7 578.5C1029.7 571.4 1012.6 562.9 994.4 559.2C992.5 558.8 991.7 561.7 993.6 562.1Z" fill="#161616"/>
<path d="M1072 731.7C1070.4 773.8 1068.8 815.9 1070.3 857.9C1071 878.3 1074.2 899.5 1070.4 919.8C1067.2 936.5 1057.8 953.2 1041.1 959.4C1039.3 960.1 1040.1 963 1041.9 962.3C1068.5 952.4 1075.4 922.1 1075 896.7C1074.8 879.5 1073.3 862.3 1072.9 845C1072.5 827.4 1072.7 809.9 1073 792.3C1073.4 772.1 1074.2 751.9 1074.9 731.7C1075.1 729.7 1072.1 729.7 1072 731.7Z" fill="#161616"/>
<path opacity="0.38" d="M1057.6 708C1052.3 726.2 1044 746.1 1031.2 765.9C973.9 854 869 871.6 842.2 875.3C878.2 879.1 914.6 883.2 951.4 887.6C992 892.4 1032.1 897.5 1071.6 902.7C1069.1 858 1069.1 821.2 1069.7 794.9C1070.8 740.5 1074.7 696.5 1067.6 695.1C1065.9 694.7 1062.9 696.6 1057.6 708Z" fill="#3D3D3D"/>
<path opacity="0.42" d="M1069.9 740.7C1066.3 751.3 1060.8 766.3 1052.7 783.6C1041.3 808.1 1030.4 831.7 1016.3 846.2C976.9 886.7 899.9 869.2 899.7 872C899.6 873.6 927.8 878.1 1070.2 891.2C1070.2 841 1070.1 790.9 1069.9 740.7Z" fill="#3D3D3D"/>
<path d="M1249.3 1153C882.3 1104 515.2 1055 148.2 1006.1C256.5 943.3 364.9 880.5 473.2 817.7C804.3 850.3 1135.5 883 1466.6 915.6C1394.1 994.7 1321.7 1073.9 1249.3 1153Z" fill="white" stroke="#161616" stroke-width="3" stroke-miterlimit="10"/>
<path d="M144.6 1014.6C512.5 1063.4 880.4 1112.2 1248.2 1161" stroke="#161616" stroke-width="16" stroke-miterlimit="10"/>
<path d="M1241.2 1163.2C1318.3 1081.7 1395.4 1000.1 1472.4 918.6" stroke="#161616" stroke-width="16" stroke-miterlimit="10"/>
<path d="M1118.4 949C1080.9 978.3 1044.2 1008.5 1008.1 1039.5C1006.6 1040.8 1008.8 1042.9 1010.2 1041.6C1046.3 1010.6 1083.1 980.4 1120.5 951.1C1122 950 1119.9 947.8 1118.4 949Z" fill="#161616"/>
<path d="M1009.5 1041.1C1021.3 1043.6 1033.3 1043.6 1045.4 1043.7C1059 1043.9 1071.8 1045.3 1084.8 1049.1C1109.2 1056.2 1133.1 1060.9 1158.6 1060.3C1160.5 1060.3 1160.5 1057.3 1158.6 1057.3C1145.5 1057.6 1132.4 1056.8 1119.4 1054.7C1107.2 1052.7 1095.6 1049.1 1083.7 1045.8C1072.3 1042.6 1060.9 1041.1 1049 1040.9C1036 1040.6 1023 1041 1010.2 1038.3C1008.4 1037.8 1007.6 1040.7 1009.5 1041.1Z" fill="#161616"/>
<path d="M1120.6 951.2C1160.2 954.4 1199.5 960.7 1238.1 970.1C1240 970.6 1240.8 967.7 1238.9 967.2C1200.1 957.7 1160.5 951.4 1120.6 948.2C1118.7 948 1118.7 951 1120.6 951.2Z" fill="#161616"/>
<path d="M1160.9 1058.5C1188.8 1030.9 1215.6 1002.1 1241 972.1C1242.2 970.6 1240.1 968.5 1238.9 970C1213.5 999.9 1186.7 1028.7 1158.8 1056.4C1157.4 1057.8 1159.5 1059.9 1160.9 1058.5Z" fill="#161616"/>
<path d="M1044.4 1029.2C1078.8 1025 1113.6 1029.3 1145.9 1041.9C1147.7 1042.6 1148.5 1039.7 1146.7 1039C1114.2 1026.4 1079 1022 1044.4 1026.2C1042.5 1026.4 1042.5 1029.4 1044.4 1029.2Z" fill="#161616"/>
<path d="M1096.5 1018.2C1117.7 1019.8 1138.6 1023.1 1159.3 1028C1161.2 1028.5 1162 1025.6 1160.1 1025.1C1139.2 1020.1 1118 1016.8 1096.5 1015.2C1094.5 1015.1 1094.6 1018.1 1096.5 1018.2Z" fill="#161616"/>
<path d="M1080.6 996.1C1112.5 996.8 1144.1 1001.4 1174.9 1009.9C1176.8 1010.4 1177.6 1007.5 1175.7 1007C1144.7 998.5 1112.8 993.8 1080.6 993.1C1078.7 993.1 1078.7 996.1 1080.6 996.1Z" fill="#161616"/>
<path d="M1120.2 986.9C1137.4 989.3 1154.4 992.3 1171.4 995.9C1173.3 996.3 1174.1 993.4 1172.2 993C1155.2 989.4 1138.2 986.4 1121 984C1119.1 983.7 1118.3 986.6 1120.2 986.9Z" fill="#161616"/>
<path d="M1098.3 1054C1092.2 1063.4 1086.1 1072.8 1079.9 1082.1C1079.3 1083 1080.1 1084.5 1081.2 1084.4C1130.5 1078.8 1180.5 1082 1228.7 1093.8C1230.6 1094.3 1231.4 1091.4 1229.5 1090.9C1181 1079 1130.8 1075.8 1081.2 1081.3C1081.6 1082.1 1082.1 1082.8 1082.5 1083.6C1088.6 1074.2 1094.7 1064.8 1100.9 1055.5C1102 1053.9 1099.4 1052.4 1098.3 1054Z" fill="#161616"/>
<path d="M1219.2 997.2C1238.5 996.8 1257.7 996.4 1277 996C1276.5 995.4 1276 994.7 1275.6 994.1C1262.3 1025.8 1248.9 1057.4 1235.6 1089.1C1234.9 1090.9 1237.8 1091.7 1238.5 1089.9C1251.8 1058.2 1265.2 1026.6 1278.5 994.9C1278.9 994 1277.9 993 1277.1 993C1257.8 993.4 1238.6 993.8 1219.3 994.2C1217.3 994.3 1217.3 997.3 1219.2 997.2Z" fill="#161616"/>
<path d="M1146.1 1071.7C1151.2 1070.7 1156.3 1070.5 1161.5 1070.9C1163.4 1071 1163.4 1068 1161.5 1067.9C1156 1067.5 1150.7 1067.8 1145.3 1068.8C1143.4 1069.1 1144.2 1072 1146.1 1071.7Z" fill="#161616"/>
<path d="M1174.5 1072C1190.2 1072.6 1205.9 1074.1 1221.5 1076.5C1223.4 1076.8 1224.2 1073.9 1222.3 1073.6C1206.5 1071.1 1190.5 1069.6 1174.5 1069C1172.6 1068.9 1172.6 1071.9 1174.5 1072Z" fill="#161616"/>
<path d="M1175.4 1053.2C1179.1 1053.2 1182.8 1053.2 1186.6 1053.2C1188.5 1053.2 1188.5 1050.2 1186.6 1050.2C1182.9 1050.2 1179.2 1050.2 1175.4 1050.2C1173.5 1050.2 1173.5 1053.2 1175.4 1053.2Z" fill="#161616"/>
<path d="M1198.7 1052.9C1211 1053.2 1223.2 1054.4 1235.4 1056.4C1237.3 1056.7 1238.1 1053.8 1236.2 1053.5C1223.8 1051.5 1211.3 1050.3 1198.7 1049.9C1196.8 1049.9 1196.8 1052.9 1198.7 1052.9Z" fill="#161616"/>
<path d="M1196.8 1035.8C1210.8 1036 1224.7 1036.8 1238.6 1038.4C1240.5 1038.6 1240.5 1035.6 1238.6 1035.4C1224.7 1033.8 1210.8 1032.9 1196.8 1032.8C1194.9 1032.7 1194.9 1035.7 1196.8 1035.8Z" fill="#161616"/>
<path d="M1102.9 1069C1109.6 1069.2 1116.2 1068.4 1122.8 1066.8C1124.7 1066.3 1123.9 1063.4 1122 1063.9C1115.7 1065.5 1109.4 1066.2 1102.9 1066C1101 1066 1101 1069 1102.9 1069Z" fill="#161616"/>
<path d="M1150.4 912.3C1147.8 915.5 1144.8 922 1147.9 925.9C1149.8 928.3 1153.4 927.8 1156.1 927.9C1161 928.1 1165.9 928.4 1170.8 928.6C1190.7 929.5 1210.5 930.5 1230.4 931.4C1232.3 931.5 1232.3 928.5 1230.4 928.4C1215.7 927.7 1201.1 927 1186.4 926.3C1179.2 926 1172.1 925.6 1164.9 925.3C1161.4 925.1 1157.7 925.3 1154.2 924.8C1151.6 924.4 1149.7 924.3 1149.8 921.1C1149.9 918.6 1151 916.3 1152.5 914.4C1153.7 912.9 1151.6 910.7 1150.4 912.3Z" fill="#161616"/>
<path d="M1153.1 916.1C1169.9 916.7 1186.7 917.2 1203.5 917.8C1211.7 918.1 1220 918.3 1228.2 918.6C1235.6 918.9 1243.4 919.4 1248.7 925.1C1250 926.5 1252.1 924.4 1250.8 923C1246.8 918.6 1241.4 916.9 1235.6 916.1C1227 915 1218.1 915.2 1209.4 914.9C1190.6 914.3 1171.8 913.6 1153.1 913C1151.2 913.1 1151.2 916.1 1153.1 916.1Z" fill="#161616"/>
<path d="M1229.4 931.5C1237.1 931.6 1244.4 929.2 1250.6 924.6C1252.1 923.5 1250.6 920.9 1249.1 922C1243.3 926.3 1236.7 928.6 1229.4 928.5C1227.4 928.5 1227.4 931.5 1229.4 931.5Z" fill="#161616"/>
<path d="M1231.8 916.1C1227.6 918.9 1225.7 924.1 1227.1 928.9C1227.6 930.7 1230.5 930 1230 928.1C1229 924.6 1230.2 920.7 1233.3 918.6C1234.9 917.6 1233.4 915 1231.8 916.1Z" fill="#161616"/>
<path d="M502.1 556.6C499.6 551.4 492.5 551 488.7 554.9C484.6 559.1 482.7 567.2 483.1 572.9C484 584.4 495.2 589.8 498.2 600.1C499.6 604.8 506.8 606.3 509.2 601.5C513.2 593.6 518.8 586.8 523.8 579.6C528.2 573.2 534.9 563.3 532.5 555.1C531.5 551.6 528.4 548.6 524.6 548.2C520 547.7 516.8 550.5 514.1 553.9C511.4 557.4 509 561 507 564.9C505.2 568.3 503.8 572.3 500.3 574.2C503.2 575.4 506.2 576.6 509.1 577.8C507.8 573.5 506.5 569.2 505.3 565C502 566.9 498.6 568.9 495.3 570.8C499.8 575.9 507.5 576.6 512.9 572.3C515.4 570.3 516.8 567.6 518.5 565C519.3 563.8 520 562.7 521.2 561.9C522 561.3 523 560.9 524 560.6C526 560.5 525.9 560.3 523.8 560C522.8 558.3 521.8 556.5 520.8 554.8C520.8 555 520.8 555.3 520.8 555.5C522.3 553.6 523.7 551.6 525.2 549.7C525 549.8 524.8 549.8 524.6 549.9C517.3 552.2 520.4 563.8 527.8 561.5C528 561.4 528.2 561.4 528.4 561.3C531.1 560.5 532.6 558.2 532.8 555.5C532.8 555.3 532.8 555 532.8 554.8C532.9 552.7 531.5 550.7 529.8 549.6C524.8 546.4 517.4 549.5 513.3 552.8C511 554.7 509.4 556.9 507.8 559.4C506.8 561 505.7 564.4 503.8 562.2C499.8 557.7 492.1 562.5 493.8 568C495.1 572.3 496.4 576.6 497.6 580.8C498.7 584.6 503 586.3 506.4 584.4C511.5 581.7 514.3 577 516.8 572C518.3 569.1 519.8 566.3 521.7 563.7C522 563.2 524.7 560.4 524.6 559.9C522 557.7 520.7 557.8 520.5 560.2C520.3 561 520 561.7 519.7 562.4C514.7 574.5 504.7 583.7 498.8 595.3C502.5 595.8 506.1 596.3 509.8 596.7C507.9 590.2 503.6 585.5 499.5 580.3C497.8 578.1 495.9 575.7 495.3 573C494.9 571.1 495.1 569.4 495.6 567.6C495.9 566.4 496.3 565.3 496.8 564.2C498.5 561.8 496.8 561.2 491.8 562.5C495.1 569.6 505.4 563.5 502.1 556.6Z" fill="#F8D208"/>
<path d="M508.6 589.4C517.4 578.8 525.1 567.5 531.5 555.4C535.1 548.6 524.7 542.5 521.1 549.3C515.2 560.6 508.3 571.2 500.1 580.9C495.2 586.8 503.6 595.3 508.6 589.4Z" fill="#F8D208"/>
<path d="M532.3 419.7C530.7 430.2 531.1 440.5 533.9 450.8C535.4 456.4 544.1 454 542.6 448.4C540.3 439.8 539.6 430.9 541 422.1C541.8 416.4 533.1 414 532.3 419.7Z" fill="#0648B3"/>
<path d="M535.7 424.3C546.7 429 555.5 419.8 555.9 409C555.9 408 555.3 405.3 555.7 404.4C555.5 404.4 555.3 404.4 555.2 404.4C556.1 404.7 556.8 405.2 557.2 406.1C558.8 408.1 559.6 410.7 561.3 412.7C564.8 416.8 569.6 417.4 574.7 417.7C577.2 417.8 580.2 417.5 581.7 419.9C583.2 422.2 582.4 426.1 582.2 428.7C582 432.3 581.7 436 581.4 439.6C581.3 440.5 580.4 443.9 581.7 442.6C580.9 443.5 577.6 443.7 576.5 444C569.9 445.5 563.1 446.1 556.4 445.7C552.9 445.5 547.6 445.9 545.6 442.8C543.8 439.9 543.7 435.5 544.2 432.2C541.5 432.6 538.7 432.9 536 433.3C538.4 438.6 540.7 443.9 543.1 449.3C544.7 452.8 550.5 451.8 551.3 448.2C553.7 437.4 550.4 426.1 553.8 415.5C551.3 416.2 548.8 416.8 546.3 417.5C549.2 421 548.5 428.5 549.2 432.8C550 437.8 551.4 442.4 553.7 446.8C555.8 450.6 562.4 449 562.1 444.5C561.3 432.5 560.5 420.4 559.8 408.4C556.9 408.8 553.9 409.2 551 409.6C555.2 420.9 555.8 432.7 552.5 444.3C554.7 443.4 556.9 442.5 559.1 441.6C553.5 437.3 549.3 431.7 546.4 425.3C544.5 421.2 537.8 423.3 538 427.6C538.2 431.6 538.3 435.6 538.5 439.6C541.5 439.6 544.5 439.6 547.5 439.6C547.3 434.6 547.5 429.7 548.5 424.8C548.9 423.1 549.3 421.3 549.8 419.6C550.1 418.5 550.5 417.3 550.9 416.2C552.2 414.6 552 414 550.3 414.4C555.1 421.2 555.7 431.4 554.9 439.3C557.7 438.5 560.5 437.8 563.3 437C561 432.3 559.5 427.3 558.9 422.1C558.6 419.4 558.5 416.7 558.7 414C558.7 413.6 559.2 410.8 559 410.6C558.3 410.7 557.6 410.7 556.9 410.8C557.3 411.6 557.7 412.3 558.1 413.1C562.7 422.5 564.1 433.1 563 443.5C565.8 442.7 568.6 442 571.4 441.2C569.6 437.3 568.2 433.2 567.4 429C567.1 427.2 566.9 425.4 567.1 423.6C567.2 422.6 567.4 421.6 567.7 420.6C568.8 419.4 568.9 418.9 568 419.2C566.8 419 565.7 418.9 564.5 418.7C566.1 419.5 567.1 427.4 567.4 429.2C568 433.5 567.9 438 567.3 442.3C570.2 442.3 573.1 442.3 576 442.3C574.9 439.1 574.1 435.8 573.6 432.5C573.1 429.3 573.4 426 572.4 422.9C574.6 429.8 574.2 437.1 572.2 443.9C574.9 443.5 577.7 443.2 580.4 442.8C579.2 440.2 578.2 437.4 577.7 434.5C577.4 433.1 577.3 431.7 577.2 430.3C577.2 429.7 577.1 429.1 577.2 428.5C577.5 427.1 576.8 427 575.2 428.1C574.3 427.4 573.4 426.7 572.5 426C578.2 435.8 566.8 446.7 557.1 445.3C558.2 446.7 559.3 448.2 560.4 449.6C560.3 447.8 559.7 445.2 560.3 443.5C559.6 444.4 558.9 445.3 558.2 446.2C556.5 447.3 565.6 446 561.8 445.6C556.6 445.1 555.8 453.1 560.6 454.4C565.4 455.7 569.8 458.3 574.9 457.7C579.3 457.2 582.6 454.6 584.4 450.7C586.3 446.6 586.7 441.8 586.1 437.3C585.8 434.8 585.2 432.5 584.2 430.3C583.8 429.3 583.3 428.3 582.8 427.3C582.5 426.7 582.1 426.1 581.7 425.5C581.3 424.6 581.1 424.8 581.3 426.1C584.1 426.9 586.9 427.6 589.7 428.4C589.8 426.5 590 424.7 590.1 422.8C587.2 423.2 584.2 423.6 581.3 424C583 429 582.7 433.6 580.7 438.5C578.5 443.9 587.2 446.2 589.4 440.9C591.9 434.6 592.1 428 590 421.6C588.4 416.7 581.5 417.7 581.2 422.8C581.1 424.7 580.9 426.5 580.8 428.4C580.5 432.8 587.3 434.7 589.2 430.7C591.4 425.9 590.8 419.7 585.7 417C581.3 414.7 575.4 416.7 573.3 421.2C570.4 427.4 576.9 432.9 577.5 438.9C577.8 441.7 577.8 447.3 574.7 448.7C571.7 450 566 446.5 563.2 445.7C562.8 448.6 562.4 451.6 562 454.5C571.1 455.3 571.3 443.3 565 439.4C561.9 437.5 557.7 436 554.4 438C550.3 440.5 551.5 445.5 551.6 449.5C551.7 451.3 552.9 453.6 554.9 453.8C570.9 456.1 585.5 443.3 582.4 426.6C581.8 423.3 580.5 419.6 576.8 418.9C573.7 418.3 570.6 420.1 569.3 422.9C566 430 569.9 440.5 572.9 447C574.6 450.7 580.1 449.4 581.1 445.9C583.1 439.2 583.7 432.3 582.5 425.4C581.6 420.2 580 413.4 573.5 413.2C559 412.9 565 436.7 567.5 444.2C568.8 448 575.4 448.9 576.2 444.2C577.4 436.5 577.3 428.8 575.3 421.2C574.1 416.7 571.7 407.9 565.2 410.2C560 412.1 558.4 419.6 558.4 424.5C558.4 431.7 561 438.8 564 445.1C566.1 449.6 572 446.8 572.4 442.8C573.3 434.4 572.6 425.9 570.2 417.8C568.5 412.1 565.4 400.6 557.8 400.9C550.4 401.1 550 410.6 550 416C550 424.7 552.2 433.1 556 441C558.1 445.4 564 442.7 564.4 438.7C565.2 431.6 564.5 424.4 562.3 417.6C560.7 412.6 558.1 405.4 552.1 404.7C545.5 404 543.2 411.6 541.7 416.5C539.5 423.7 538.8 431.3 539.1 438.9C539.4 444.7 548.3 444.7 548.1 438.9C547.9 434.9 547.8 430.9 547.6 426.9C544.8 427.7 542 428.4 539.2 429.2C542.8 437.1 548.3 443.5 555.1 448.7C557.5 450.5 561 448.5 561.7 446C565.5 433 565 419.2 560.2 406.5C558.5 402.1 551 402.3 551.4 407.7C552.2 419.7 553 431.8 553.7 443.8C556.5 443 559.3 442.3 562.1 441.5C556.9 431.8 560.4 418.9 553.3 410.3C551 407.5 546.7 409.3 545.8 412.3C542.3 423 545.7 434.2 543.3 445C546 444.6 548.8 444.3 551.5 443.9C549.1 438.6 546.8 433.3 544.4 427.9C542.9 424.5 536.8 425.3 536.2 429C535.1 436 535.6 445.8 541.7 450.6C544.5 452.8 548.2 453 551.7 453.4C556.4 453.9 561.2 454.1 566 453.8C570.6 453.5 575.1 452.8 579.6 451.8C582.6 451.1 586.6 450.6 588.7 448.2C591.4 445.3 590.9 440.6 591.2 436.9C591.5 432.5 592 428.2 592.1 423.8C592.2 416.6 589.3 410.3 581.9 408.5C578.9 407.8 575.8 408.2 572.7 407.7C567.9 407 567.4 402.9 564.8 399.5C561.5 395.1 554.4 392.3 549.9 396.6C547 399.4 547.6 403 547.7 406.6C547.8 409.8 546.2 417.9 541.1 415.7C535 414.3 530.4 422.1 535.7 424.3Z" fill="#0648B3"/>
<path d="M270.7 474.1C277.7 480.5 284.3 487.4 290 495C293.8 500 297.7 510 304.5 511.4C308.5 512.2 311.7 510.1 314.7 507.7C318.8 504.4 322.8 501 326.9 497.6C331 494.2 335 490.9 339.1 487.5C342 485.1 345.3 482.9 345.5 478.8C345.7 474.9 343.2 472 340.9 469.1C337.7 465 334.4 460.9 331.2 456.8C328 452.7 324.7 448.6 321.5 444.5C319.1 441.5 316.9 437.5 312.9 436.6C309.3 435.8 306 437.9 303 439.5C299 441.6 295.1 444 291.4 446.5C284.1 451.5 277.3 457.2 271.1 463.6C269.2 465.6 269.4 469.3 272 470.7C278.5 474 284.7 477.9 290.3 482.7C292.8 484.8 295.2 487.1 297.5 489.5C298.6 490.7 299.7 491.9 300.8 493.2C301.5 494 302.2 494.9 302.9 495.7C303.8 498.1 305.1 498 306.7 495.2C307.1 497.9 307.4 500.7 307.8 503.4C318.2 497.1 327.7 489.3 335.9 480.3C339.3 476.5 335 470.7 330.4 473.2C323.4 477 316.2 480.1 308.7 482.5C310.4 484.7 312.1 486.9 313.8 489.1C318 482.4 323.2 476.6 329.3 471.5C326.9 469.7 324.6 467.9 322.2 466C316.7 474.2 309.8 481.4 301.9 487.3C304.1 489 306.3 490.7 308.5 492.4C311.1 483 316.4 474.7 324.3 468.8C322.2 466.7 320.2 464.7 318.1 462.6C313.6 471.5 307.3 479.1 299.2 484.9C300.7 484.9 302.2 484.9 303.7 484.9C304 485.2 304.2 485.6 304.5 485.9C304.7 485.1 304.9 484.3 305.1 483.6C305.4 482.6 305.7 481.6 306.1 480.5C307 477.8 308.2 475.3 309.5 472.8C312 468.1 315.1 464 318.8 460.2C316.4 458.4 314.1 456.6 311.7 454.7C306.4 465.6 299.1 475.1 289.9 483.1C292.5 484.2 295 485.2 297.6 486.3C298.7 474.5 303.8 463.7 312.1 455.2C309.7 453.4 307.4 451.6 305 449.7C300.9 457.7 294.9 464 287.1 468.5C289.4 469.8 291.6 471.1 293.9 472.4C293.8 468.8 294.3 465.3 296 462.1C296.7 460.7 297.6 459.4 298.6 458.3C300.2 456.4 303.2 455.9 300.4 454.1C299.1 452.5 298.4 452.6 298.3 454.6C297.8 455.6 297.4 456.6 296.9 457.6C296.1 459.1 295.3 460.5 294.5 461.9C293.6 463.3 292.7 464.7 291.7 466C290.9 467 290.2 468 289.3 469C287.9 469.8 287.8 470.4 289 470.7C289.7 471.6 290.4 472.5 291.1 473.4C290.1 470.2 293.4 464.2 294.9 461.5C295.8 460 301 451.4 303.3 451.9C304.4 452.1 305.9 457.7 306.3 458.7C307.1 460.9 307.8 463.2 308.3 465.5C308.8 467.8 309.4 470.2 309.4 472.5C309.4 475.2 309.4 475.3 307.2 473.4C300.9 468 300.2 454.3 309.5 451.2C314.2 449.6 315.6 455.6 316.7 459C318.3 463.9 319.8 468.9 321.4 473.9C323.9 472.4 326.4 471 328.9 469.5C323.3 464 320.3 457 320.1 449.1C318.2 450.5 316.3 452 314.4 453.4C324.9 457.4 326.6 470.6 328 480.2C328.8 485.9 337.5 483.5 336.7 477.8C334.7 464.2 331 450 316.8 444.7C314.1 443.7 311 446.3 311.1 449C311.3 459.2 315.3 468.5 322.5 475.7C325.6 478.8 331.4 475.7 330 471.3C328.2 465.6 326.6 459.9 324.6 454.3C323.2 450.3 321.4 446.1 317.7 443.7C309.7 438.4 300.3 444.4 296.2 451.7C291.5 460.2 292.7 470.8 299.1 478C304.4 483.9 314.7 487.1 317.6 477.2C320.2 468.4 315.7 455.4 311.3 447.8C305.3 437.6 295.4 445.3 290.3 451.9C287.6 455.4 285.5 459.2 284 463.3C282.6 467.1 280.3 473.3 283.1 477C289.7 485.6 299.2 471 302.1 466.2C304.6 462.2 308.2 456.7 307.6 451.7C307 447 302.6 444.8 298.4 446.6C289.2 450.6 284.5 462.9 284.9 472.2C285 475.6 288.6 477.8 291.7 476.1C300.7 470.9 308 463.3 312.8 454.1C315.1 449.7 309.4 444.9 305.7 448.6C295.7 458.8 289.9 471.8 288.6 486C288.2 490.2 293.6 491.5 296.3 489.2C306 480.8 313.9 470.5 319.5 459C321.6 454.6 316.2 449.7 312.4 453.5C306.6 459.5 302 466.4 298.8 474.1C296.7 479.2 292.3 488.9 299.1 492.4C300.5 493.1 302.3 493.3 303.6 492.4C313 485.7 320.6 477.2 325.8 466.9C327.6 463.3 323.6 457.8 319.6 460.7C309.8 468.1 302.9 477.9 299.7 489.7C298.7 493.2 303 497.2 306.3 494.8C315.6 488 323.4 479.9 329.9 470.3C332.9 465.8 326.5 461.8 322.8 464.8C316.1 470.3 310.5 476.8 305.9 484.2C303.8 487.5 307.3 492 311 490.8C319.3 488.2 327.3 484.8 334.9 480.6C333.1 478.2 331.3 475.9 329.4 473.5C321.7 482 312.9 489.3 303.1 495.2C299.5 497.4 300.7 502 304.2 503.4C308.4 505.1 312.9 501.7 313.1 497.4C313.4 492.2 308 487.3 304.8 483.9C296.7 475.1 287 467.9 276.4 462.6C276.7 465 277 467.3 277.3 469.7C282 464.9 287 460.5 292.3 456.5C297.1 452.9 303.1 448.1 308.8 446.2C310.5 445.6 310.4 445.3 311.8 446.7C313.2 448.1 314.3 449.8 315.4 451.3C317.6 454.1 319.9 457 322.1 459.8C324.5 462.9 327 466 329.4 469.1C330.7 470.8 336 475.9 335.6 477.8C335.2 480 329.7 483.2 327.9 484.7C325.1 487 322.3 489.3 319.5 491.6C316.7 493.9 313.9 496.2 311.1 498.5C309.9 499.5 307.3 502.4 305.2 501.3C304.4 500.9 303 497.9 302.5 497.2C295.2 486.2 286.5 476.3 276.8 467.4C272.8 463.9 266.4 470.2 270.7 474.1Z" fill="#0648B3"/>
<path d="M275.5 466.1C279.1 473.1 301.7 512.1 311.3 498.8C314.7 494.1 306.9 489.6 303.5 494.3C303.3 494.5 303.2 494.8 303 495C304.3 494.3 305.6 493.5 306.9 492.8C305.2 493 301.1 487.3 300 486C297.8 483.5 295.6 481 293.6 478.3C289.7 473 286.3 467.4 283.3 461.6C280.7 456.4 272.9 461 275.5 466.1Z" fill="#0648B3"/>
<path d="M454.4 342.6C443.7 334.8 439.6 318.8 446.3 307.1C449.6 301.3 455.6 296.6 462.6 297.4C469.8 298.2 473.3 303.4 473.8 310.2C474.1 314 473.7 317.9 473.6 321.7C473.4 325.3 473.8 329.5 472.8 333C471.8 336.5 468.2 338.4 466.8 341.9C465.6 344.9 466.9 347.5 463.4 348.5C462.4 348.8 461 348.7 460.1 349C458.5 348.8 458.5 349.1 460.1 349.8C459.7 348.5 459.4 347.3 459 346C457.7 341.6 456.4 337.1 455.1 332.7C452.9 325.3 448.3 314.4 454.1 307.5C451.7 307.8 449.3 308.1 446.8 308.4C450.3 311 449 321.6 449.2 325.2C449.5 332.7 449.8 340.2 450.1 347.7C450.4 355.6 461.3 355.3 462.1 347.7C462.9 339.8 461.8 332 461.5 324C461.3 320.6 461.3 317.1 461.8 313.7C462 312 462.4 310.4 462.9 308.8C463.2 307.7 463.7 306.6 464.2 305.6C465.3 303.9 465.3 303.7 464.3 305C462.8 305.2 461.2 305.4 459.7 305.6C459.4 305.5 460.8 309.2 461 310C461.4 311.5 461.6 313.1 461.8 314.6C462.2 318.8 462.2 323.1 462 327.3C461.9 329.2 461.7 331.1 461.4 333.1C461.2 334.3 461 335.5 460.8 336.7C459.8 339.1 461.5 339.7 465.9 338.2C466.3 337.4 465.2 334.2 465.1 333.3C464.9 331.2 464.8 329 464.9 326.9C465 322.8 465.5 318.9 466.5 314.9C466.8 313.7 467.1 312.6 467.5 311.4C469 308.8 467.4 307.9 462.7 308.8C462.3 309.5 463.9 313.3 464.1 314C465 318.2 465.2 322.5 464.8 326.8C464.6 328.8 464.4 335.3 462.1 335.8C454.6 337.6 457.8 349.2 465.3 347.4C473.2 345.5 475.4 337.5 476.4 330.4C477.5 322 477.1 312.5 473.9 304.6C470.8 297 461.7 296.9 457.7 303.9C453.7 310.9 452.8 320.8 452.9 328.7C453 335.1 453.1 346.1 460.8 348.4C469.3 350.9 472.3 341.7 473.2 335.3C474.4 326.9 474.7 318.3 473.3 309.9C472.3 303.7 468.3 291.8 459.8 294.1C451.6 296.2 450 310.5 449.6 317.3C449.1 327.5 451.3 337.6 450.3 347.8C454.3 347.8 458.3 347.8 462.3 347.8C461.9 337.7 461.5 327.6 461 317.5C460.7 309.8 459.5 303 453 298.2C451.1 296.7 447.3 297.3 445.7 299.1C439.1 306.9 438.6 316.5 440.9 326.1C442.1 331.3 443.8 336.5 445.3 341.6C446.7 346.4 447.5 352.2 450.1 356.4C454.2 363.2 465.6 361.6 471.5 358.1C474.6 356.3 476.7 353.3 477.5 349.8C478 347.6 477.8 346.7 479.2 344.9C480.8 342.9 482.4 341.3 483.4 338.9C485.1 335.1 485.2 330.9 485.4 326.9C485.6 321.9 486.1 316.8 486 311.7C485.8 302.8 482.9 294.4 475.2 289.3C460.4 279.5 441.8 288.6 434.8 303.4C426.6 320.9 433.2 341.6 448.5 352.8C454.6 357.5 460.6 347.1 454.4 342.6Z" fill="#F8D208"/>
<path d="M453.8 369.1C455.8 372.3 459.4 373.5 463 372.4C464.6 371.9 466 371 467.2 369.9C467.5 369.6 467.9 369.3 468.2 368.9C468.5 368.6 468.4 368.6 468 369C469.9 368 468.4 367.7 463.6 367.9C466 369.9 469.8 370.4 472.1 367.9C474.2 365.7 474.6 361.6 472.1 359.4C469.2 356.9 465.5 356.5 462.1 358.5C461 359.1 459.9 360 459.1 361C458.4 361.9 460 360.4 458.9 361.2C459.1 361.1 459.3 361 459.5 361C457.4 361.5 458.9 362.2 464 363.1C462.3 360.4 458.6 359.1 455.8 360.9C453.3 362.6 452 366.3 453.8 369.1Z" fill="#F8D208"/>
<path d="M456.6 377C456.6 377.3 456.6 377.6 456.6 377.9C456.6 379.4 457.3 381.1 458.4 382.1C459.4 383.1 461.1 383.9 462.6 383.9C464.2 383.8 465.8 383.3 466.8 382.1C467.9 380.9 468.6 379.5 468.6 377.9C468.6 377.6 468.6 377.3 468.6 377C468.6 375.5 467.9 373.8 466.8 372.8C465.8 371.8 464.1 371 462.6 371C461 371.1 459.4 371.6 458.4 372.8C457.3 373.9 456.6 375.3 456.6 377Z" fill="#F8D208"/>
<path d="M397.2 266.4C423.5 235.1 448.7 202.9 472.9 169.8C470.6 170.7 468.4 171.6 466.1 172.6C468.4 173.3 470.1 174.5 471.8 176.2C471.5 173.8 471.2 171.4 470.9 168.9C447.8 201.9 424.8 234.8 401.7 267.8C404.4 267.1 407.2 266.4 409.9 265.6C407.9 264.4 405.9 263.2 403.9 261.9C404.6 264.6 405.3 267.4 406.1 270.1C416.6 256.4 426.2 242.2 434.9 227.3C438.8 220.6 428.4 214.6 424.5 221.2C415.8 236 406.2 250.3 395.7 264C393.7 266.6 395.4 270.7 397.9 272.2C399.9 273.4 401.9 274.6 403.9 275.9C406.8 277.7 410.3 276.4 412.1 273.7C435.2 240.7 458.2 207.8 481.3 174.8C482.8 172.6 482.1 169.3 480.4 167.5C477.3 164.3 473.6 162.1 469.4 160.8C466.7 159.9 464.2 161.4 462.6 163.6C439.1 195.8 414.5 227.2 388.8 257.7C383.8 263.8 392.3 272.4 397.2 266.4Z" fill="#F8D208"/>
<path d="M329.9 606.4C329.9 606.1 329.9 605.8 329.9 605.5C329.9 597.8 317.9 597.8 317.9 605.5C317.9 605.8 317.9 606.1 317.9 606.4C317.9 614.2 329.9 614.2 329.9 606.4C329.9 606.1 329.9 605.8 329.9 605.5C329.9 597.8 317.9 597.8 317.9 605.5C317.9 605.8 317.9 606.1 317.9 606.4C317.9 614.2 329.9 614.2 329.9 606.4Z" fill="#F8D208"/>
<path d="M234.1 522.7C241.8 522.7 241.8 510.7 234.1 510.7C226.4 510.7 226.4 522.7 234.1 522.7Z" fill="#F8D208"/>
<path d="M261.2 528C267 528 267 519 261.2 519C255.4 519 255.4 528 261.2 528Z" fill="#0648B3"/>
<path d="M628.7 299.4C634.5 299.4 634.5 290.4 628.7 290.4C622.9 290.4 622.9 299.4 628.7 299.4Z" fill="#0648B3"/>
<path d="M685.1 435.4C685.1 436 685.1 436.5 685.1 437.1C685.1 438.3 685.6 439.5 686.4 440.3C687.2 441.1 688.5 441.7 689.6 441.6C690.8 441.5 692 441.2 692.8 440.3C693.6 439.4 694.1 438.3 694.1 437.1C694.1 436.5 694.1 436 694.1 435.4C694.1 434.2 693.6 433 692.8 432.2C692 431.4 690.7 430.8 689.6 430.9C688.4 431 687.2 431.3 686.4 432.2C685.6 433.1 685.1 434.2 685.1 435.4Z" fill="#0648B3"/>
<path d="M648.8 364C665.8 366.7 689.6 374.6 683.3 396.8C680.4 407 672.4 414.3 664.5 420.8C656.7 427.1 649 433.3 641.9 440.4C635.1 447.2 628.9 454.6 623.2 462.4C618.7 468.6 612.5 476.3 613.2 484.6C613.8 492 620.3 493.8 626.2 496.1C634.7 499.4 643.7 505.2 647 514.1C651.4 526.1 642.2 536.7 633.5 543.8C625.7 550.2 617.2 555.7 611.9 564.5C610.9 566.2 613.5 567.7 614.5 566C624 550 648.2 543.6 650.9 523.4C652 515.5 648.4 508.1 642.7 502.8C639.9 500.1 636.6 497.9 633.2 496C629.1 493.8 624.3 492.9 620.3 490.6C609.1 484.1 623.1 467.5 627.9 461.2C634.8 452.1 642.5 443.7 651 436.1C664.6 423.7 685.9 412.7 687.4 392C688.9 371 666.4 363.9 649.8 361.3C647.7 360.8 646.9 363.7 648.8 364Z" fill="#161616"/>
<path d="M353.4 360.8C335.6 382.7 315.5 402.6 293.3 420C271.5 437.1 247.8 450.7 223.7 464.2C201.5 476.7 179.1 489.5 160.1 506.8C151.6 514.5 142.2 523.5 137.4 534.2C133.7 542.5 133.4 553.3 142.9 557.6C148.1 559.9 154.2 559.1 159.6 558.2C168.4 556.7 177.1 554.8 185.8 553.1C194.7 551.4 203.6 549.6 212.5 547.9C221 546.3 236.9 544.8 237.3 557.5C237.4 559.4 240.4 559.4 240.3 557.5C239.9 545.7 227.3 542.7 217.6 543.9C202.8 545.8 188.2 549.5 173.5 552.3C163.2 554.3 135.7 562.6 137.7 542.9C139 530.2 151 519.2 159.7 510.9C178.1 493.5 200.2 480.6 222.2 468.2C245.3 455.2 268.3 442.4 289.5 426.4C313.9 407.9 336 386.5 355.3 362.8C356.7 361.4 354.6 359.3 353.4 360.8Z" fill="#161616"/>
<path d="M194.3 566.2C185.5 576.8 175.2 589.3 176.8 604C178 615.3 186.1 625.9 198.3 625.1C206.1 624.6 213 620.3 219.8 617C228.3 612.9 237 609.2 246 606.5C254.9 603.9 264.2 602.2 273.5 602C280.9 601.9 289.3 602.4 295.5 607C304.9 613.8 299.1 624 294.1 631.6C289.2 638.9 284.9 646.4 281.1 654.3C277.7 661.5 274.7 669 272.3 676.6C270.5 682.3 268.4 689 272.8 694C282.2 704.9 296.5 695.6 304.4 688.2C316.5 676.9 329.6 667.5 344.7 660.5C361.6 652.7 380 648.1 398.5 647.1C407.9 646.6 417.4 646.9 426.7 648.4C435 649.7 444.3 652.3 448.2 660.6C449 662.3 451.6 660.8 450.8 659.1C445.4 647.4 430.6 645.6 419.2 644.5C404.3 643.1 389.1 644.2 374.5 647.4C359.9 650.6 345.6 656 332.6 663.4C326.2 667 320.2 671.1 314.4 675.6C307.9 680.7 302.4 687 295.8 691.7C289.9 695.9 277.3 699 273.8 689.8C272.1 685.3 274.3 680.1 275.7 675.7C277.2 671.1 278.9 666.6 280.8 662.2C284.1 654.4 288 646.9 292.4 639.7C296.3 633.4 302.1 627 303.5 619.5C305.8 607.3 293.8 601 283.5 599.5C268.2 597.4 252 600.9 237.6 606.1C228.8 609.3 220.5 613.4 212.1 617.5C203.4 621.8 192.6 625.1 185.2 616.6C171.4 600.8 185.9 580.9 196.4 568.2C197.7 566.8 195.6 564.7 194.3 566.2Z" fill="#161616"/>
<path d="M251.8 616.8C261.2 613.8 269.5 623 269.7 631.9C269.9 641.3 263.7 649.4 257.5 655.8C256.1 657.2 258.3 659.3 259.6 657.9C267.2 650.1 275.1 639 272.1 627.4C269.7 618.3 260.5 610.9 251 613.9C249.2 614.5 249.9 617.4 251.8 616.8Z" fill="#161616"/>
<path d="M601.1 358.8C605.7 362.6 611.1 363.4 616.8 364.6C623 365.9 628.4 368.3 632.7 373.1C640.8 382.2 643.3 395.9 637.3 406.7C636.4 408.4 638.9 409.9 639.9 408.2C645.7 397.8 644.5 385 638.1 375.2C635.1 370.6 630.9 366.6 625.8 364.2C618.6 360.8 609.6 361.9 603.2 356.7C601.7 355.5 599.6 357.6 601.1 358.8Z" fill="#161616"/>
<path d="M234.4 571.8C240.1 587.1 258.2 583.2 269.3 577.2C276.4 573.4 283 568.5 288.8 562.9C295 556.8 300 549.6 306.1 543.4C312.8 536.6 322.2 530.4 332.3 532.1C341.4 533.6 346.9 541.7 352.7 547.9C360.3 555.9 375.6 564.1 383.3 551.4C384.3 549.7 381.7 548.2 380.7 549.9C375.8 557.9 365.4 555.1 359.4 550.3C354 545.9 350.1 539.9 344.8 535.4C334.8 526.8 322.3 527.6 311.7 534.8C300 542.7 292.9 555.8 282.2 564.9C275.9 570.2 268.6 575.1 260.8 578C252.5 581.1 240.9 580.9 237.3 571.1C236.6 569.2 233.7 570 234.4 571.8Z" fill="#161616"/>
<path d="M259.4 478.6C272.2 489.7 282.9 502.9 291.2 517.7C292.1 519.4 294.7 517.9 293.8 516.2C285.4 501.1 274.6 487.8 261.5 476.5C260.1 475.2 257.9 477.4 259.4 478.6Z" fill="#161616"/>
<path d="M262 475.4C272.8 461.1 288.1 446.5 305.1 440C307.8 439 310.9 438.1 313.8 438.8C317.4 439.6 319.5 442.7 321.6 445.5C324.6 449.4 327.5 453.4 330.4 457.4C336.1 465.4 341.5 473.7 346.6 482.1C347.6 483.7 350.2 482.2 349.2 480.6C342.8 470.1 335.9 459.8 328.6 449.9C323.1 442.4 318.1 433.6 307.4 436.1C298.1 438.3 289.2 445.1 281.9 450.8C273.4 457.5 265.9 465.3 259.3 473.9C258.3 475.4 260.9 476.9 262 475.4Z" fill="#161616"/>
<path d="M293 519C313.4 510.4 331.6 497.8 346.7 481.6C348 480.2 345.9 478.1 344.6 479.5C329.9 495.3 312.1 507.8 292.2 516.1C290.4 516.9 291.2 519.8 293 519Z" fill="#161616"/>
<path d="M273.6 477.4C285 467.1 297.7 458.6 311.7 452.1C313.4 451.3 311.9 448.7 310.2 449.5C296 456.1 283.1 464.8 271.5 475.3C270 476.5 272.2 478.7 273.6 477.4Z" fill="#161616"/>
<path d="M281.9 482.4C288.1 477.9 294.3 473.5 300.5 469C302.1 467.9 300.6 465.3 299 466.4C292.8 470.9 286.6 475.3 280.4 479.8C278.8 481 280.3 483.6 281.9 482.4Z" fill="#161616"/>
<path d="M286.1 489.3C296.5 482 306.9 474.6 317.3 467.3C318.9 466.2 317.4 463.6 315.8 464.7C305.4 472 295 479.4 284.6 486.7C283 487.8 284.5 490.4 286.1 489.3Z" fill="#161616"/>
<path d="M294.9 497.5C301.3 492.3 308 487.7 315 483.4C316.7 482.4 315.1 479.8 313.5 480.8C306.2 485.1 299.3 490 292.8 495.3C291.3 496.6 293.4 498.7 294.9 497.5Z" fill="#161616"/>
<path d="M299.5 505.7C308.9 498 319.1 491.6 330 486.3C331.7 485.5 330.2 482.9 328.5 483.7C317.3 489.1 307 495.8 297.4 503.6C295.9 504.8 298 506.9 299.5 505.7Z" fill="#161616"/>
<path d="M505.1 568.5C510 562.3 504.2 554.7 497.7 552.9C489.9 550.7 481 554.4 477.1 561.4C472.7 569.2 474.5 579.4 480.2 586C487.5 594.6 506.5 599.8 503.1 614C502.6 615.9 505.5 616.7 506 614.8C509.9 598.6 490.4 593.6 482.3 583.9C476.6 577 475.6 565.4 482.8 559.1C485.7 556.6 489.8 555.1 493.6 555.3C498.1 555.5 507.8 560.4 503.1 566.5C501.8 567.9 503.9 570 505.1 568.5Z" fill="#161616"/>
<path d="M506.7 567.9C507.5 562.5 510 557.7 514 554C515.9 552.2 518.1 550.8 520.5 549.7C521.7 549.2 523 548.7 524.3 548.4C527.1 547.8 527.7 547.8 530 549.8C532.3 551.9 532.4 552.5 532.3 555.4C532.3 556.5 532.1 557.6 532 558.6C531.7 560.6 531.1 562.5 530.4 564.4C528.9 568.5 526.6 572.3 524.2 575.9C515.6 588.7 503.3 600.4 502.6 616.7C502.5 618.6 505.5 618.6 505.6 616.7C506.5 594.8 529.2 582.2 534.4 561.8C535.4 557.9 536.2 552.9 534.5 549.1C532.4 544.7 527.8 544.5 523.6 545.5C513.4 547.9 505.6 556.8 504 567.1C503.5 569 506.4 569.9 506.7 567.9Z" fill="#161616"/>
<path d="M523.7 416.9C521.9 426.6 521.5 436.8 523.7 446.5C525.8 455.8 532.5 453.8 540.2 454.3C557.7 455.5 580.9 466.6 592.4 446.8C593.4 445.1 590.8 443.6 589.8 445.3C580 462.2 559.4 453.9 544.4 451.8C540.9 451.3 537.6 451.3 534.1 451.4C528.7 451.4 527.1 448.8 526.3 444C524.8 435.3 525 426.5 526.7 417.8C526.9 415.8 524 415 523.7 416.9Z" fill="#161616"/>
<path d="M524.1 421.7C529.5 418.4 534.2 417.8 540.3 416.8C542.9 416.4 544.6 415.4 545 412.7C546.1 405.9 543.2 398.9 548.6 393.1C554.6 386.6 562.7 392.4 565.2 399C566.4 402.1 567.1 405.7 569.5 408.2C572.6 411.5 576.7 410.6 580.6 411.7C595.7 415.8 591.2 435.3 588 445.8C587.4 447.6 590.3 448.4 590.9 446.6C594.3 435.7 597.7 422.1 588.6 413C587.1 411.5 585.4 410.3 583.5 409.5C580.6 408.3 577.4 408.9 574.4 407.8C568.6 405.7 568.7 397.1 565.2 392.7C558.9 384.9 548.1 386 543.8 395.1C542.6 397.6 542.2 400.2 542 402.9C541.8 406.1 543.3 412.5 539.9 413.8C537.5 414.8 533.8 414.4 531.2 415.2C528.1 416.1 525.3 417.5 522.6 419.1C521 420.2 522.5 422.8 524.1 421.7Z" fill="#161616"/>
<path d="M536 418.6C534.5 430.4 536.5 442.1 541.7 452.8C542.5 454.5 545.1 453 544.3 451.3C539.3 441.1 537.5 429.9 539 418.6C539.3 416.7 536.3 416.7 536 418.6Z" fill="#161616"/>
<path d="M439.8 352.1C426.9 346.1 419.2 332.2 419.9 318C420.7 303.5 430.5 290.3 443 283.4C450.8 279.1 459.1 277.8 467 282.4C474.2 286.5 479.3 293.6 482.2 301.2C487.4 315 485.5 330.7 477.3 343C476.2 344.6 478.8 346.1 479.9 344.5C493.5 324.2 490.4 288.9 465.5 278.4C453 273.1 439.7 280.2 430.7 289C421.9 297.6 416.2 309.9 416.9 322.3C417.7 336 425.7 348.9 438.2 354.8C440 355.5 441.5 352.9 439.8 352.1Z" fill="#161616"/>
<path d="M438.4 355.7C435.8 358.5 436.5 362.8 439.7 364.9C444.9 368.3 453.9 365.2 459.4 363.9C465.3 362.5 474.2 361.2 478.2 356C480.6 352.8 480.6 348.4 477.5 345.7C476 344.5 473.9 346.6 475.4 347.8C480 351.7 474 356.2 470.4 357.6C467.4 358.7 464.3 359.6 461.2 360.4C458.3 361.1 455.4 361.8 452.5 362.3C450.7 362.6 448.7 363.1 446.9 363.2C444.3 363.3 436.8 361.9 440.6 357.9C441.9 356.4 439.8 354.3 438.4 355.7Z" fill="#161616"/>
<path d="M444.2 366.4C444.6 372.3 449.6 376.1 455.4 376.5C463.4 377 469.4 370.3 474.1 364.8C475.3 363.3 473.2 361.2 472 362.7C468.7 366.6 465 371.1 460.1 372.8C455.1 374.6 447.7 372.6 447.3 366.4C447.1 364.5 444.1 364.5 444.2 366.4Z" fill="#161616"/>
<path d="M452.3 377.6C451.5 381.7 454 386 458.3 386.7C462.7 387.4 466.5 383.5 466.6 379.3C466.6 377.4 463.6 377.4 463.6 379.3C463.6 381.8 461.2 384.3 458.5 383.7C456.2 383.2 454.7 380.6 455.2 378.4C455.6 376.5 452.7 375.7 452.3 377.6Z" fill="#161616"/>
<path d="M431.8 314.3C440.4 319.8 447 327.5 451.2 336.8C452 338.6 454.6 337 453.8 335.3C449.4 325.5 442.4 317.5 433.3 311.7C431.6 310.7 430.1 313.3 431.8 314.3Z" fill="#161616"/>
<path d="M447.2 307C449.1 321.4 451.1 335.8 453 350.1C453.3 352 456.1 351.2 455.9 349.3C454 334.9 452 320.5 450.1 306.2C449.8 304.3 447 305.1 447.2 307Z" fill="#161616"/>
<path d="M452.4 331.5C455 322.1 461 314.5 469.5 309.7C471.2 308.8 469.7 306.2 468 307.1C458.9 312.2 452.3 320.6 449.5 330.7C449 332.6 451.9 333.4 452.4 331.5Z" fill="#161616"/>
<path d="M343.4 588.6C347.4 597.3 351.7 605.9 356.5 614.2C358.9 618.3 362.1 626.1 368 623.6C369.8 622.8 368.2 620.3 366.5 621C362.7 622.6 355.9 607.1 354.6 604.6C351.5 598.9 348.7 593 346 587.1C345.2 585.3 342.6 586.8 343.4 588.6Z" fill="#161616"/>
<path d="M346.1 590.4C354.6 583.8 362.9 577 371.5 570.6C379 564.9 387.1 559.4 396.3 556.8C406.2 553.9 414.8 556.2 421.4 564.2C427 571 430.4 579.4 434.2 587.2C435 588.9 437.6 587.4 436.8 585.7C429.5 570.7 420.9 549.5 400.4 552.8C390.2 554.4 381 560 372.7 566C362.9 573.2 353.5 580.9 343.9 588.4C342.5 589.5 344.6 591.6 346.1 590.4Z" fill="#161616"/>
<path d="M363.9 623.9C390 618.2 414.2 606 434.5 588.6C436 587.3 433.8 585.2 432.4 586.5C412.5 603.6 388.7 615.4 363.1 621.1C361.2 621.5 362 624.4 363.9 623.9Z" fill="#161616"/>
<path d="M388.2 595.7C382.9 594.4 378.5 589.2 379.8 583.5C381 578 387.7 574 393 576.6C403.7 582 396.4 597.4 385.4 593.5C383.6 592.9 382.8 595.8 384.6 596.4C390.8 598.6 398.3 595.6 400.7 589.3C403.1 583.1 399.2 575.6 393.1 573.4C386.5 571 379 575.5 377.1 582.1C374.9 589.5 380.3 596.8 387.4 598.6C389.3 599.1 390.1 596.2 388.2 595.7Z" fill="#161616"/>
<path d="M441.5 519.8C440.3 509.1 440.2 496.9 452.9 494C459.3 492.5 464.6 490.6 468.3 484.7C472.1 478.7 471.6 473.1 470.1 466.5C469 461.3 469.1 456.8 473.3 452.9C476.7 449.8 481.2 448.6 485.6 450C487.4 450.6 488.2 447.7 486.4 447.1C480 445.1 473.3 447.6 469.2 452.9C462.9 461.2 470.3 469.6 467.8 478.5C466.3 483.8 462.2 488.3 456.9 490.1C452.6 491.5 448 491.4 444.4 494.4C436.8 500.6 437.5 511.1 438.5 519.8C438.7 521.7 441.7 521.7 441.5 519.8Z" fill="#161616"/>
<path d="M417.1 463.8C414 461.3 416.5 455.7 420.5 457.8C422.1 458.6 423.1 460.5 422.2 462.2C421.3 463.9 419 464.8 417.3 463.9C415.6 463 414.1 465.6 415.8 466.5C418.9 468 422.7 466.9 424.6 464.1C426.6 461.1 425.3 457.3 422.4 455.5C419.5 453.7 415.6 454.2 413.7 457.2C412 460 412.4 463.9 415 466C416.5 467.1 418.6 465 417.1 463.8Z" fill="#161616"/>
<path d="M553.9 309.8C552.1 306.9 551 303.2 552.1 299.9C553 297.1 555.8 295.4 558.7 295.7C561.9 296 563.6 299 561.9 301.8C560.4 304.4 557.3 305.7 554.4 305.3C552.5 305.1 552.5 308.1 554.4 308.3C558.7 308.8 563.4 306.2 565 302.1C566.5 298.4 564.6 294.3 560.8 293.1C557.2 291.9 552.8 293.3 550.6 296.4C547.3 300.9 548.6 307 551.3 311.5C552.3 312.9 554.9 311.4 553.9 309.8Z" fill="#161616"/>
<path d="M392.6 431.4C398 441.2 409 446.7 420.1 445.1C433.7 443.1 441 432.7 446.4 421.1C452.7 407.7 461.4 396.7 475.3 390.8C487.9 385.5 504.2 388.2 514.6 378.3C518.6 374.5 521.3 369.2 520.4 363.6C519.7 359.3 517.1 355.7 518.1 351.2C519.3 346.3 523.1 342.7 527.9 341.7C529.8 341.3 529 338.4 527.1 338.8C521.3 340.1 516.6 344.5 515.2 350.4C514.4 353.6 515 356.5 516 359.6C517.6 364.6 518.2 368.7 514.9 373.3C509.1 381.4 498.9 382.5 489.8 383.8C481.7 385 474.1 387.2 467.1 391.4C460.9 395.1 455.4 400.1 451.1 405.9C446.4 412.3 443.8 419.8 440 426.7C435.2 435.2 427.3 441.7 417.2 442.3C408 442.8 399.4 437.9 394.9 429.8C394.3 428.2 391.7 429.7 392.6 431.4Z" fill="#161616"/>
<path d="M371.7 267.4C370 279.9 368.3 292.4 366.7 304.9C366.4 306.8 369.3 307.6 369.6 305.7C371.3 293.2 373 280.7 374.6 268.2C374.9 266.3 372 265.5 371.7 267.4Z" fill="#161616"/>
<path d="M371.2 306.6C383 298.1 394.8 289.6 406.6 281.1C408.2 280 406.7 277.4 405.1 278.5C393.3 287 381.5 295.5 369.7 304C368.1 305.1 369.6 307.7 371.2 306.6Z" fill="#161616"/>
<path d="M373.6 269.1C403.2 229.4 432.3 189.4 460.9 149C462 147.4 459.4 145.9 458.3 147.5C429.7 187.9 400.6 228 371 267.6C369.9 269.1 372.5 270.6 373.6 269.1Z" fill="#161616"/>
<path d="M410.3 276.6C437.5 240.6 463.9 204 489.5 166.8C490.6 165.2 488 163.7 486.9 165.3C461.3 202.4 434.9 239.1 407.7 275.1C406.5 276.6 409.1 278.1 410.3 276.6Z" fill="#161616"/>
<path d="M460 149C464.7 140.2 470.2 129.5 480.6 126.6C490.9 123.7 501 131.5 501.2 142.2C501.2 144.1 504.2 144.1 504.2 142.2C504.1 131.9 495.4 122.6 484.8 122.9C470.9 123.3 463.1 136.6 457.4 147.5C456.5 149.2 459.1 150.7 460 149Z" fill="#161616"/>
<path d="M490.1 166.5C495.2 158.9 499.8 151.1 503.9 142.9C504.8 141.2 502.2 139.7 501.3 141.4C497.2 149.6 492.6 157.4 487.5 165C486.5 166.5 489.1 168.1 490.1 166.5Z" fill="#161616"/>
<path d="M457.8 153.9C469.3 146.1 484.2 150.3 489.9 162.9C490.7 164.7 493.3 163.1 492.5 161.4C486.1 147.3 469 142.6 456.3 151.3C454.7 152.4 456.2 155 457.8 153.9Z" fill="#161616"/>
<path d="M452.5 162.9C462.5 156.5 477.2 160.7 481.8 171.9C482.5 173.7 485.4 172.9 484.7 171.1C479.3 158.3 462.8 152.8 451 160.3C449.4 161.4 450.9 164 452.5 162.9Z" fill="#161616"/>
<path d="M371.8 270.5C377.3 273.8 382.8 266.6 388.5 266.7C392.8 266.8 396.8 268.8 399.3 272.4C401.1 275 402 277.5 404.9 279C406.6 279.9 408.1 277.3 406.4 276.4C403 274.6 402 270.2 399.1 267.7C397.1 266 394.7 264.8 392.1 264.2C389.5 263.6 386.8 263.6 384.3 264.2C381.1 265 376.4 269.7 373.4 267.9C371.7 266.9 370.2 269.5 371.8 270.5Z" fill="#161616"/>
<path d="M388.2 265.1C408.4 238.5 428.7 211.8 448.9 185.2C450.1 183.7 447.5 182.2 446.3 183.7C426.1 210.3 405.8 237 385.6 263.6C384.5 265.1 387.1 266.6 388.2 265.1Z" fill="#161616"/>
<path d="M419.9 245.1C438.7 217.5 458.6 190.8 479.7 164.9C480.9 163.4 478.8 161.3 477.6 162.8C456.4 188.9 436.2 215.8 417.3 243.6C416.3 245.2 418.9 246.7 419.9 245.1Z" fill="#161616"/>
<path d="M370.6 297.1C372.5 295.5 375.3 297.1 374.8 299.6C374.4 301.5 377.3 302.3 377.7 300.4C378.2 298 377.3 295.5 375.1 294.2C372.9 292.9 370.3 293.4 368.4 295C367 296.2 369.1 298.3 370.6 297.1Z" fill="#161616"/>
<path d="M371.5 296.7C371 298.8 370.1 300.7 368.8 302.4C369.6 302.9 370.5 303.4 371.3 303.9C371.9 301.7 373.1 299.8 374.8 298.2C374 298.1 373.2 298 372.4 297.9C372.9 299 372.5 300.2 371.5 300.8C372.2 301.1 373 301.4 373.7 301.7C373.3 300.3 373.6 299 374.5 297.9C373.9 298 373.3 298.1 372.7 298.1C373.5 298.5 373.4 299.6 372.6 300C373.2 300.1 373.8 300.2 374.4 300.2C373.8 299.7 373.3 299.1 373 298.4C372.9 298.1 372.8 297.8 372.7 297.4C372.7 297.2 372.5 295.1 372.2 295.7C371.3 297.4 373.9 298.9 374.8 297.2C376.2 294.6 372.6 292.3 370.6 294.4C368.5 296.7 370.4 300.5 372.4 302.2C372.9 302.7 373.6 302.8 374.2 302.4C377 301 377 296.8 374.3 295.3C373.8 295 372.9 295 372.5 295.5C370.9 297.4 370.3 299.8 370.9 302.2C371.1 303.1 372.3 303.6 373.1 303.1C375.6 301.6 376.3 298.6 375.1 296.1C374.7 295.2 373.4 295.2 372.7 295.8C370.6 297.7 369.2 300.1 368.5 302.8C368.1 304.1 370 305.5 371 304.3C372.6 302.2 373.8 299.9 374.5 297.3C374.9 295.6 372 294.8 371.5 296.7Z" fill="#161616"/>
<path d="M365.9 312.4C363.9 323.2 359.4 333.1 352.3 341.5C351.1 343 353.2 345.1 354.4 343.6C361.8 334.7 366.7 324.5 368.8 313.1C369.1 311.3 366.2 310.5 365.9 312.4Z" fill="#161616"/>
<path d="M345 324.9C334.6 332.6 323.6 339.5 312.2 345.6C310.5 346.5 312 349.1 313.7 348.2C325.1 342.1 336.1 335.2 346.5 327.5C348.1 326.3 346.6 323.7 345 324.9Z" fill="#161616"/>
<path d="M589.1 553.5C586.4 549.3 581.9 551.5 579.5 554.7C576.9 558 574.8 561.9 572.6 565.5C570.9 568.3 568.9 571.4 568.6 574.9C568 581.9 573.3 582.7 578.6 584.4C584.9 586.5 584.5 593.9 580.5 598C577.3 601.3 572.6 602.7 568.4 604.1C566.6 604.7 567.4 607.6 569.2 607C577.6 604.3 590.1 598.2 585.8 587C585.1 585.2 583.9 583.7 582.3 582.7C581.4 582.2 580.4 581.8 579.4 581.5C576.5 580.6 575.7 580.9 573.4 578.4C571.5 577.3 570.9 575.8 571.8 573.8C572.2 572.4 572.7 571.1 573.4 569.9C574.2 568.3 575.2 566.8 576.2 565.3C577.2 563.8 584.2 551.2 586.5 554.9C587.5 556.6 590.1 555.1 589.1 553.5Z" fill="#161616"/>
<path d="M417.4 671.2C425.6 669.1 432.6 677.2 429 685C428.2 686.7 430.8 688.3 431.6 686.5C436.3 676.4 427.6 665.5 416.7 668.3C414.7 668.8 415.5 671.7 417.4 671.2Z" fill="#161616"/>
<path d="M570.6 506.5C566.8 503.7 566.8 496.4 572.6 496.2C574.7 496.1 576.9 497.3 576.8 499.6C576.8 501.5 575.1 503.8 573 503.5C571.1 503.2 570.3 506.1 572.2 506.4C575.9 507 579.1 504.3 579.7 500.7C580.4 497 577.7 493.8 574.1 493.3C570.4 492.7 566.6 494.8 565.3 498.4C564 502.4 565.8 506.7 569.1 509.1C570.6 510.2 572.1 507.6 570.6 506.5Z" fill="#161616"/>
<path d="M152.6 494.1C154 488.5 158.8 485.3 163.3 482.2C168 478.9 172.8 475.5 177.6 472.2C187.1 465.5 196.6 458.9 206.1 452.2C207.7 451.1 206.2 448.5 204.6 449.6C193.5 457.4 182.4 465.1 171.3 472.9C163.8 478.1 152.1 483.6 149.7 493.3C149.2 495.2 152.1 496 152.6 494.1Z" fill="#161616"/>
<path d="M823.5 1019.8C702 999 580.5 978.2 459 957.4C532.8 927.6 606.6 897.9 680.4 868.1C795.8 893.8 911.2 919.5 1026.5 945.2C958.9 970.1 891.2 994.9 823.5 1019.8Z" fill="white" stroke="#161616" stroke-width="3" stroke-miterlimit="10"/>
<path d="M818.5 1021.3C818.9 1022.5 819.2 1023.8 819.6 1025C820.1 1026.6 822.5 1026.3 822.5 1024.6C822.5 1023.6 822.5 1022.7 822.5 1021.7C822.5 1019.8 819.5 1019.8 819.5 1021.7C819.5 1022.9 819.3 1024 818.8 1025.1C819.8 1025.1 820.7 1025.1 821.7 1025.1C821.3 1023.8 821.2 1022.6 821.5 1021.2C820.6 1021.3 819.7 1021.4 818.8 1021.6C819.1 1021.9 819.1 1022.1 818.9 1022.4C819.8 1022.5 820.7 1022.6 821.6 1022.8C821.4 1022.1 821.5 1021.5 821.9 1020.9C821 1020.6 820 1020.4 819.1 1020.1C818.9 1021.7 818.7 1023.2 818.5 1024.8C818.4 1025.6 819.3 1026.3 820 1026.3C820.9 1026.3 821.4 1025.6 821.5 1024.8C821.7 1023.2 821.9 1021.7 822.1 1020.1C822.3 1018.6 820 1018.2 819.3 1019.3C818.5 1020.6 818.3 1022.1 818.7 1023.6C819 1024.9 820.8 1025 821.4 1024C822.2 1022.8 822.2 1021.3 821.3 1020.2C820.6 1019.3 818.8 1019.2 818.6 1020.6C818.2 1022.4 818.3 1024.3 818.8 1026.1C819.3 1027.6 821.2 1027.4 821.7 1026.1C822.2 1024.7 822.5 1023.3 822.5 1021.9C821.5 1021.9 820.5 1021.9 819.5 1021.9C819.5 1022.9 819.5 1023.8 819.5 1024.8C820.5 1024.7 821.5 1024.5 822.4 1024.4C822 1023.2 821.7 1021.9 821.3 1020.7C820.9 1018.6 818 1019.4 818.5 1021.3Z" fill="#161616"/>
<path d="M820.8 1028.5C836.9 1020.2 854.5 1015.8 871.8 1010.9C880.3 1008.5 888.7 1005.9 896.8 1002.5C904.6 999.3 912.1 995.3 919.8 991.7C936.9 983.7 955.4 978.5 973.3 972.6C991.9 966.4 1010.4 960.2 1029 954.1C1030.8 953.5 1030 950.6 1028.2 951.2C1009.6 957.4 991.1 963.6 972.5 969.7C954.9 975.5 936.8 980.7 919.9 988.4C911.1 992.4 902.5 997.1 893.5 1000.6C885.3 1003.8 876.9 1006.3 868.4 1008.7C851.7 1013.5 834.8 1017.9 819.2 1025.9C817.6 1026.8 819.1 1029.4 820.8 1028.5Z" fill="#161616"/>
<path d="M822.2 1027.9C891.3 1004 960.2 979.8 1029.1 955.2C1034.5 953.3 1032.2 944.6 1026.7 946.5C957.9 971.1 888.9 995.3 819.8 1019.2C814.4 1021.1 816.7 1029.8 822.2 1027.9Z" fill="#161616"/>
<path d="M814.4 931.3C827.4 932.6 838.5 940.5 851.3 943C853.2 943.4 854 940.5 852.1 940.1C839.1 937.5 827.8 929.6 814.4 928.3C812.5 928.2 812.5 931.2 814.4 931.3Z" fill="#161616"/>
<path d="M852.2 941.6C860.1 937.3 867.5 932.2 874.2 926.2C875.6 924.9 873.5 922.8 872.1 924.1C865.5 929.9 858.4 934.9 850.7 939C849 940 850.5 942.6 852.2 941.6Z" fill="#161616"/>
<path d="M817.5 925.6C823.8 921.1 830.3 916.8 837 912.8C838.7 911.8 837.1 909.2 835.5 910.2C828.8 914.2 822.3 918.4 816 923C814.4 924.2 815.9 926.8 817.5 925.6Z" fill="#161616"/>
<path d="M837.5 913.3C848.9 917.6 860.3 921.8 871.8 926.1C873.6 926.8 874.4 923.9 872.6 923.2C861.2 918.9 849.8 914.7 838.3 910.4C836.5 909.8 835.7 912.7 837.5 913.3Z" fill="#161616"/>
<path d="M805.4 942.7C835.5 952 865.2 962.7 894.3 974.8C896.1 975.5 896.9 972.6 895.1 971.9C866 959.8 836.3 949.1 806.2 939.8C804.3 939.2 803.5 942.1 805.4 942.7Z" fill="#161616"/>
<path d="M808.3 966C827 975 845.9 983.5 865 991.8C866.8 992.6 868.3 990 866.5 989.2C847.4 981 828.5 972.4 809.8 963.4C808.1 962.6 806.6 965.2 808.3 966Z" fill="#161616"/>
<path d="M811 991.7C821.2 996.9 831.4 1002.2 841.6 1007.4C843.3 1008.3 844.8 1005.7 843.1 1004.8C832.9 999.6 822.7 994.3 812.5 989.1C810.8 988.2 809.3 990.8 811 991.7Z" fill="#161616"/>
<path d="M816.8 992.6C830.9 980.6 845.7 969.6 861.1 959.4C862.7 958.3 861.2 955.7 859.6 956.8C844 967.1 829 978.4 814.7 990.5C813.2 991.8 815.3 993.9 816.8 992.6Z" fill="#161616"/>
<path d="M813.1 972.1C821.1 966.5 829.1 960.9 837.1 955.2C838.7 954.1 837.2 951.5 835.6 952.6C827.6 958.2 819.6 963.8 811.6 969.5C810.1 970.6 811.6 973.2 813.1 972.1Z" fill="#161616"/>
<path d="M818.1 1026.7C692.4 1005.3 566.7 983.9 441 962.5C429.2 873.2 417.3 784 405.5 694.7C540.8 712.9 676 731.1 811.3 749.4C813.6 841.8 815.9 934.2 818.1 1026.7Z" fill="white" stroke="#161616" stroke-width="3" stroke-miterlimit="10"/>
<path d="M594.1 872.2C583.2 868.8 577.3 859.6 576.4 848.5C575.5 837.2 577.7 826.3 588.2 820.4C597.5 815.2 608.6 816.7 616.9 823C625.2 829.3 632.6 842.2 625.9 852.1C624.8 853.7 627.4 855.2 628.5 853.6C635.7 843 628.9 829 620.1 821.7C611 814.2 598.7 811.9 588 817.2C575.6 823.3 572.4 835.7 573.4 848.6C574.4 861.1 581 871.4 593.3 875.2C595.1 875.7 595.9 872.8 594.1 872.2Z" fill="#161616"/>
<path d="M596.9 873.3C592.3 865.7 593.8 855.1 601.2 849.8C608.6 844.5 619.2 846.7 624.8 853.5C626 855 628.1 852.9 626.9 851.4C620.3 843.5 607.9 841.3 599.3 847.4C590.7 853.6 588.9 866 594.3 874.8C595.3 876.4 597.9 874.9 596.9 873.3Z" fill="#161616"/>
<path d="M607.2 877.5C602.5 872.5 603.2 863.2 609.5 859.6C615.7 856 624.1 860.1 626.1 866.7C626.7 868.5 629.6 867.8 629 865.9C626.4 857.5 615.9 852.5 608 857.1C600.1 861.7 599.1 873.3 605.1 879.7C606.4 881 608.5 878.9 607.2 877.5Z" fill="#161616"/>
<path d="M614.9 884.5C618.8 885.9 623.3 883.6 624.8 879.9C626.4 876.2 624.3 872.2 620.8 870.6C617.3 869 613.1 869.9 611.2 873.3C609.4 876.6 610 881.1 613 883.5C614.5 884.7 616.6 882.6 615.1 881.4C611.1 878.3 613.9 871 619.2 873.2C621.5 874.1 623.1 876.5 622 879C620.9 881.4 618.1 882.6 615.7 881.7C613.9 881 613.1 883.9 614.9 884.5Z" fill="#161616"/>
<path d="M811.3 749.3L820.1 1024.8" stroke="#161616" stroke-width="3" stroke-miterlimit="10"/>
<path d="M811.9 749.1C814.6 839.7 817.3 930.3 820 1020.9" stroke="#161616" stroke-width="3" stroke-miterlimit="10"/>
<path opacity="0.37" d="M638.8 730.7C645.3 734.1 701.1 764.5 705 818.5C707.2 848.3 692.6 870.9 683.4 884.7C633.8 959.3 535.7 972.5 509.1 975.3C547.8 1001 683 1085.7 830.8 1080.7C863.7 1079.6 914.7 1077.3 970 1046.9C1011.5 1024.1 1038.4 994.8 1053.8 975.3C1044.3 969.4 1034.9 963.6 1025.4 957.7C955.6 981.6 885.7 1005.5 815.9 1029.3C812.3 936.9 808.7 844.6 805.1 752.2C749.6 745.2 694.2 738 638.8 730.7Z" fill="#3D3D3D"/>
<path opacity="0.5" d="M559.3 981.8C572.3 990.4 592.4 1002.7 618.4 1014.5C650.8 1029.3 746.7 1073.1 850.6 1048.8C926.1 1031.1 984.5 982.6 980.7 974.6C978.3 969.6 949 974.8 818.5 1026.7C816.4 984.4 814.3 942 812.3 899.7C808.7 935.3 805 970.9 801.4 1006.4C720.7 998.3 640 990 559.3 981.8Z" fill="#3D3D3D"/>
<path d="M586.2 867.8C578.9 859.8 576.5 848.6 580.1 838.8C583.8 828.9 593.6 820.4 605.3 820.8C615.6 821.2 623.9 828.4 626.9 835.2C629.1 840.4 628.6 845.2 628.6 845.2C628.3 847.9 627.4 850 626.7 851.3C621.6 845.4 613.8 842.7 606.5 844.4C597.5 846.5 593.6 854.2 593.2 854.9C589.1 863.3 592.7 871.1 593.2 872C590.8 870.5 588.5 869.1 586.2 867.8Z" fill="#0648B3"/>
<path d="M1092.2 741.2C1086.8 745.2 1081 750.6 1075.7 757.7C1056 784.2 1058.7 815.3 1060.1 825.4C1042.6 821.8 1013.2 818.3 978.5 826.3C957.8 831.1 941.2 838.6 929 845.4C930.9 846.6 933.5 848 936.8 848.9C955.5 854 975.2 838.3 975.8 839.4C976.4 840.4 953.8 851 955 860.2C955.8 866.4 966.9 869.7 978.4 873.2C988.1 876.1 997.3 878.9 1009.6 877.5C1026.5 875.6 1038.2 867.1 1043.4 862.7C1048.4 865.2 1055.8 868.5 1065.1 871.4C1082.2 876.6 1105.8 883.8 1121.5 874C1131.7 867.6 1134.8 852.6 1140.6 822.8C1148 784.6 1151.7 765.5 1141.5 753.4C1128 737.3 1100.9 740 1092.2 741.2Z" fill="white" stroke="#161616" stroke-width="3" stroke-miterlimit="10"/>
<path d="M1056.7 826.4C1068.8 830.9 1078.8 839.1 1085.7 850C1086.7 851.6 1089.3 850.1 1088.3 848.5C1081 836.9 1070.3 828.3 1057.5 823.5C1055.7 822.9 1054.9 825.8 1056.7 826.4Z" fill="#161616"/>
<path d="M992.4 846.2C980.5 848.2 970.9 856.2 966.6 867.4C965.9 869.2 968.8 870 969.5 868.2C973.4 858 982.4 850.9 993.2 849.1C995.1 848.8 994.3 845.9 992.4 846.2Z" fill="#161616"/>
<path d="M968 869.3C974.2 875.2 982.8 877.2 990.9 874.6C992.7 874 991.9 871.1 990.1 871.7C983 874 975.5 872.4 970.1 867.2C968.7 865.8 966.6 867.9 968 869.3Z" fill="#161616"/>
<path d="M1006.3 856.1C1002 858.7 998 861.7 994.2 864.9C991.7 867.1 988.9 869.7 989.5 873.3C991 882.8 1002.4 880.7 1008.6 878.3C1010.4 877.6 1009.6 874.7 1007.8 875.4C1005.1 876.4 1002.1 877.7 999.2 877.6C994.5 877.4 990.3 872.9 994.3 868.8C998.1 864.8 1003.1 861.6 1007.8 858.6C1009.5 857.7 1008 855.1 1006.3 856.1Z" fill="#161616"/>
<path d="M1087.2 598.5C1091.3 601.7 1096.6 606.1 1102.2 611.8C1103.8 613.4 1107.9 617.6 1112 622.8C1118.4 630.8 1122.5 638.4 1127 647.7C1132.8 659.6 1138.6 671.5 1144.4 689.3C1149.3 704.3 1156.8 727.9 1157.7 759.3C1158.1 771.7 1157.3 782.1 1156.5 789.4C1152.4 784.7 1148.3 781.6 1144.9 779.6C1125.8 767.9 1102.6 772.1 1080.7 776.1C1072.5 777.6 1065.7 779.4 1061 780.7C1062.2 769.7 1063.3 758.7 1064.5 747.7C1065.5 738.5 1066.4 729.2 1067.4 719.9C1065.5 716.6 1062.9 711.9 1060.5 706C1055.8 694.7 1046.4 672.5 1051.8 647.6C1058.2 619 1080.7 602.8 1087.2 598.5Z" fill="#F8D208"/>
<path d="M1090.7 604C1100.7 609.2 1107.4 618.2 1113.2 627.5C1119.2 637.1 1124.6 647 1129.4 657.2C1139.2 678 1146.4 700 1151.1 722.5C1151.5 724.4 1154.4 723.6 1154 721.7C1149.2 698.3 1141.6 675.6 1131.2 654C1126.1 643.4 1120.5 633.1 1114.1 623.2C1108.4 614.4 1101.7 606.2 1092.3 601.3C1090.5 600.5 1089 603.1 1090.7 604Z" fill="#161616"/>
<path d="M1059.5 705.7C1064.1 715.1 1068.9 724.3 1073.9 733.5C1074.8 735.2 1077.4 733.7 1076.5 732C1071.5 722.8 1066.7 713.6 1062.1 704.2C1061.2 702.4 1058.6 703.9 1059.5 705.7Z" fill="#161616"/>
<path d="M1066.6 722.9C1064.1 742.3 1061.6 761.7 1059.2 781.1C1059.1 782.1 1060.3 782.8 1061.1 782.5C1078.1 777.1 1095.8 774.5 1113.6 775.1C1127.7 775.6 1146.4 776.9 1154.3 790.7C1155.3 792.4 1157.8 790.9 1156.9 789.2C1149.4 776 1133 773.3 1119.2 772.4C1099.3 771 1079.3 773.6 1060.4 779.6C1061 780.1 1061.7 780.6 1062.3 781C1064.8 761.6 1067.3 742.2 1069.7 722.8C1069.9 721 1066.9 721 1066.6 722.9Z" fill="#161616"/>
<path d="M1150.9 721C1154.4 743 1160.1 766.3 1154.2 788.4C1153.7 790.3 1156.6 791.1 1157.1 789.2C1163.1 766.6 1157.4 742.8 1153.8 720.2C1153.5 718.3 1150.6 719.1 1150.9 721Z" fill="#161616"/>
<path opacity="0.32" d="M1079.6 594.8C1088.7 611.8 1097.8 632.1 1105.5 655.4C1120.6 701.4 1124.6 742.7 1124.9 773.6C1114.7 774.2 1104.5 774.8 1094.3 775.4C1097.6 799.1 1101 822.9 1104.3 846.6C1097.9 842.9 1088.1 838.2 1075.5 835.4C1071.4 834.5 1056.3 831.5 1040.2 834.2C1006.4 839.9 986 867.6 981.4 874.2C986 876.1 991.9 877.9 999 878.3C1020.8 879.6 1036.7 867 1041.4 863C1056.3 870.5 1069.3 874.1 1078.5 875.9C1094.6 879.2 1113.4 883 1123.8 873C1124.6 872.2 1126.4 870.3 1130.3 860.6C1136.4 845.2 1139.6 830.8 1143.8 804.7C1144.7 798.9 1146 791.1 1147.3 781.8C1149.8 784.3 1152.4 786.9 1154.9 789.4C1156.1 784.9 1157.6 778.2 1158.4 770C1160.5 748.7 1156.4 731.9 1152.5 718.2C1136.8 662.8 1127.4 629.4 1096 605.2C1089.5 600.4 1083.5 596.9 1079.6 594.8Z" fill="#3D3D3D"/>
<path opacity="0.29" d="M1132.5 663.3C1139.2 695.9 1140.1 723.6 1139.6 743.6C1139.1 762.2 1137.2 775.8 1135.2 789.5C1129.3 830.8 1126.3 851.4 1114.9 861C1093.3 879.2 1054.8 865.4 1045.6 861.9C1054.3 867.7 1085.6 887.4 1116.2 876.5C1119.4 875.3 1122.9 873.8 1126.3 871.6C1129.9 865.5 1134.7 856.1 1137.8 843.8C1139.6 836.5 1140.1 831.2 1140.8 825C1141.9 815 1143.8 800.4 1147 782.1C1149.9 784.6 1152.9 787.1 1155.8 789.6C1156.8 784.5 1158.1 776.7 1158.4 767.1C1159.3 743.9 1154.2 726.3 1148.3 706.2C1145.1 695.2 1140.1 680.4 1132.5 663.3Z" fill="#3D3D3D"/>
<path d="M857.6 400.8C858.6 411.5 860.4 426.5 864.4 444.2C867 455.7 868.6 463 872 472.1C877.1 485.8 886.8 512 912.1 529.1C918.2 533.3 928.3 538.9 942.5 542.2C944.8 542.4 947.1 542.7 949.4 542.9C950.2 547.1 951.2 553.3 952.2 560.8C954.6 580.1 953.4 586 958.4 591.2C964.5 597.5 974.2 596.9 976.3 596.7C993 595.6 1001.4 579 1001.8 578.1C999.1 573.2 996.4 567.2 994.2 560.2C989.4 544.7 989.3 530.9 990.1 521.5C997.8 510.4 1006.3 501.9 1014.9 495.3C1018.2 492.8 1021 489.4 1025.9 487.7C1032.9 485.3 1036.5 487.7 1041.7 486.1C1050.3 483.4 1054 472.3 1055.6 467.7C1061.7 449.5 1054.2 431.5 1049.4 420.8C1045.1 411 1033.9 386.7 1006.6 367.7C978.5 348.1 922.3 326.3 885.1 354.6C878.7 359.5 864.1 372.6 857.6 400.8Z" fill="#FEFEFF"/>
<path d="M861.8 442C855.4 440.9 839.2 437.1 828.7 423.2C812.7 402.1 821.3 372.6 830.2 357C844.2 332.5 869.7 324 901.7 313.3C920.7 307 938.8 301 963.4 302C977 302.6 1023.1 304.6 1050.7 338.9C1067.1 359.2 1068.9 381 1072.5 424C1074.2 443.7 1072.9 454.4 1069.5 464.6C1067 472 1058.9 495.7 1035.6 505.2C1023.4 510.2 1012.1 509.2 1005.9 508.2C1011.5 499.9 1017.1 491.7 1022.8 483.4C1026 483.6 1037.4 483.8 1046.1 475.9C1058 465 1060.1 443.3 1051.4 437.5C1045 433.2 1032.3 437.4 1021.3 447.3C1020.3 441 1018.7 434.1 1016 427C1003.4 393.1 976 374.5 962.6 366.8C957.3 373.6 940.5 393.5 910.7 401.4C887.1 407.6 867.5 403.2 858.8 400.6C859.8 414.4 860.8 428.2 861.8 442Z" fill="#0648B3"/>
<path d="M856.8 403.4C860.9 434.3 865.2 466.4 880.3 494.2C892.7 517 912.7 536.5 938.4 543C940.3 543.5 941.1 540.6 939.2 540.1C913.8 533.6 894.2 514 882.2 491.3C867.9 464.3 863.8 433.3 859.8 403.4C859.5 401.5 856.5 401.5 856.8 403.4Z" fill="#161616"/>
<path d="M938.4 543.4C956.5 543.4 975.5 533.7 989.7 523.3C1004 512.8 1015.7 499.3 1024.1 483.7C1025 482 1022.4 480.5 1021.5 482.2C1013.4 497.4 1002.1 510.6 988.2 520.7C974.3 530.9 955.9 540.4 938.4 540.4C936.4 540.4 936.4 543.4 938.4 543.4Z" fill="#161616"/>
<path d="M989.6 520.9C987.6 541.1 991.5 561.3 1000.7 579.4C1001.6 581.1 1004.2 579.6 1003.3 577.9C994.3 560.2 990.7 540.6 992.6 520.9C992.8 519 989.8 519 989.6 520.9Z" fill="#161616"/>
<path d="M946.1 542.9C949.4 554.3 952.1 565.9 954.1 577.6C955.4 585.4 955.9 594.2 964.6 597.1C977.6 601.5 996.8 593.7 1001.8 580.8C1002.5 579 999.6 578.2 998.9 580C996.1 587.3 989.1 591.3 981.9 593.4C975.9 595.1 966.8 596.9 961.7 592C958.7 589.1 958.3 584.5 957.7 580.6C957 576.5 956.3 572.4 955.5 568.3C953.7 559.5 951.6 550.7 949.1 542.1C948.5 540.3 945.6 541.1 946.1 542.9Z" fill="#161616"/>
<path d="M950.4 555.3C968.2 553 979.9 539.4 988.5 524.8C989.5 523.1 986.9 521.6 985.9 523.3C978 536.9 967 550.2 950.4 552.3C948.5 552.6 948.5 555.6 950.4 555.3Z" fill="#161616"/>
<path d="M949.7 545.1C963.6 543.5 976.1 537 985.4 526.5C986.7 525.1 984.6 522.9 983.3 524.4C974.6 534.3 962.8 540.6 949.7 542.1C947.9 542.3 947.8 545.3 949.7 545.1Z" fill="#161616"/>
<path d="M950.2 542.9C961.4 541.3 971.5 536.7 980.1 529.4C981.6 528.1 979.4 526 978 527.3C969.8 534.3 960.1 538.6 949.4 540.1C947.5 540.3 948.3 543.2 950.2 542.9Z" fill="#161616"/>
<path d="M949.6 545.4C950.1 547.8 950 552.6 953 553.4C955.9 554.2 960.3 550.8 962.6 549.4C970.5 544.6 977.1 538.1 982.3 530.5C983.4 528.9 980.8 527.4 979.7 529C976 534.5 971.5 539.4 966.2 543.4C963.7 545.3 961.1 546.9 958.4 548.4C957.3 549 954.8 550.7 953.7 550C953 549.6 952.7 545.3 952.6 544.6C952.1 542.7 949.2 543.5 949.6 545.4Z" fill="#161616"/>
<path d="M951 548.2C959.6 544.7 967.7 540.3 975.3 535C976.9 533.9 975.4 531.3 973.8 532.4C966.4 537.6 958.6 541.9 950.2 545.3C948.4 546 949.2 548.9 951 548.2Z" fill="#161616"/>
<path d="M952.5 551.2C962.1 547.8 970.5 542.5 977.5 535.1C978.8 533.7 976.7 531.6 975.4 533C968.7 539.9 960.8 545.1 951.7 548.3C949.9 549 950.7 551.9 952.5 551.2Z" fill="#161616"/>
<path d="M954.1 549.6C961.2 546.5 967.7 542.3 973.3 536.9C974.7 535.6 972.6 533.5 971.2 534.8C965.7 540 959.5 544 952.6 547C950.8 547.8 952.3 550.4 954.1 549.6Z" fill="#161616"/>
<path d="M872.4 479.4C856.1 473.6 850.7 452.3 852.3 436.9C854 420 869.2 401.6 887.8 409.5C896.7 413.3 900 423.1 902.4 431.8C904.9 441 906 451.2 903.6 460.6C901.5 468.9 896.4 476.8 888.4 480.4C880.4 484 870.9 482 865.5 475.1C864.3 473.6 862.2 475.7 863.4 477.2C872.5 488.9 889.6 486.6 898.8 476.3C910.5 463.2 909.3 443.3 904.3 427.6C902 420.3 899 412.7 892.3 408.5C886.5 404.8 879.1 403.9 872.6 405.6C857.4 409.7 849.5 425.8 849.2 440.5C848.9 456.6 855.2 476.5 871.8 482.3C873.4 482.9 874.2 480 872.4 479.4Z" fill="#161616"/>
<path d="M907 449.5C916.8 443.6 928.7 443 938.9 448.1C940.6 449 942.1 446.4 940.4 445.5C929.2 439.9 916.2 440.4 905.4 446.9C903.9 447.9 905.4 450.5 907 449.5Z" fill="#161616"/>
<path d="M954.8 470.8C943.5 459.9 938.8 443 943.2 427.8C947.8 412 963.6 398.4 980.6 404C999.4 410.2 1000.4 437.1 995.5 452.9C992.6 462.2 986.8 471.5 977.2 474.9C967.6 478.3 959.3 473.2 951.6 467.8C950 466.7 948.5 469.3 950.1 470.4C956.4 474.9 963.2 479.4 971.2 479.1C978.8 478.8 985.7 474.6 990.4 468.9C1001 456.1 1003.1 436.6 998.7 421C994.7 406.8 982.9 397.6 967.8 400.1C953.4 402.4 942.8 415.4 939.6 429C935.9 444.7 940.9 461.7 952.5 472.9C954.1 474.3 956.2 472.1 954.8 470.8Z" fill="#161616"/>
<path d="M881.5 437.9C880.5 444.2 881.6 450.3 885 455.7C885.7 456.8 887.3 456.6 887.7 455.3C890.1 448.4 886.7 441.6 883.3 435.7C882.6 434.4 880.5 435 880.5 436.5C880.6 441.8 881.7 447 883.7 451.9C884.4 453.7 887.3 452.9 886.6 451.1C884.7 446.4 883.6 441.6 883.5 436.5C882.6 436.8 881.6 437 880.7 437.3C883.8 442.6 887 448.4 884.8 454.6C885.7 454.5 886.6 454.4 887.5 454.2C884.5 449.5 883.4 444.2 884.3 438.7C884.7 436.8 881.8 436 881.5 437.9Z" fill="#161616"/>
<path d="M970 435.1C970 433.8 969.9 433.5 969.3 432.4C968.6 431.1 966.5 431.7 966.5 433.2C966.6 439.4 967.1 446.1 971.9 450.5C972.9 451.4 974.3 450.7 974.5 449.4C975.3 442 973.1 435.1 968.5 429.3C967.5 428.1 965.7 429.4 966 430.8C967.2 435.7 968.7 440.5 970.5 445.1C971.2 446.9 974.1 446.1 973.4 444.3C971.5 439.6 970 434.9 968.9 430C968.1 430.5 967.2 431 966.4 431.5C970.5 436.7 972.2 442.9 971.5 449.5C972.4 449.1 973.2 448.8 974.1 448.4C969.8 444.5 969.6 438.6 969.5 433.2C968.6 433.5 967.6 433.7 966.7 434C966.8 434.4 966.9 434.8 967 435.2C967 437 970 437 970 435.1Z" fill="#161616"/>
<path d="M917 454.8C915 460.8 913.3 466.9 912.2 473.1C911.6 476.4 909.5 482.6 911 485.9C914 492.6 927.3 488.5 931.9 486.3C933.6 485.5 932.1 482.9 930.4 483.7C926.7 485.5 922.7 486.4 918.6 486.1C916.2 485.9 914.3 485.5 913.8 482.8C913.5 481.3 914.5 477.4 914.8 475.7C916 468.8 917.8 462.1 920 455.5C920.5 453.8 917.6 453 917 454.8Z" fill="#161616"/>
<path d="M932.1 512.5C939.6 511.5 946.1 506.7 949.4 499.8C950.2 498.1 947.6 496.5 946.8 498.3C943.8 504.6 938.2 508.7 931.3 509.6C929.4 509.9 930.3 512.8 932.1 512.5Z" fill="#161616"/>
<path d="M875.2 429.3C877.1 427 880.6 426.6 883 428.6C884.5 429.9 886.6 427.7 885.1 426.5C881.6 423.5 876.2 423.7 873.1 427.2C871.8 428.6 873.9 430.7 875.2 429.3Z" fill="#161616"/>
<path d="M961 423.7C964.1 421 968.8 421 971.9 423.6C973.4 424.8 975.5 422.7 974 421.5C969.6 417.7 963.2 417.8 958.8 421.6C957.4 422.9 959.6 425 961 423.7Z" fill="#161616"/>
<path d="M1000.4 437.5C1011.2 433.7 1022.3 431.4 1033.8 430.8C1035.7 430.7 1035.7 427.7 1033.8 427.8C1022.1 428.4 1010.7 430.7 999.6 434.6C997.8 435.3 998.5 438.2 1000.4 437.5Z" fill="#161616"/>
<path opacity="0.4" d="M1015.3 312.9C1021.3 320.6 1044.4 352.2 1040.1 395.6C1037.7 419.8 1027.7 437.6 1021.4 447C1025 444.2 1028.1 442.3 1030.4 441C1036.5 437.6 1040.4 435.5 1045.4 435.8C1046.9 435.9 1050.5 436.2 1053.1 438.3C1060.7 444.7 1058.1 467.4 1044.6 478C1037.2 483.8 1028.5 484.4 1024.1 484.3C1018.4 492.4 1012.6 500.5 1006.9 508.7C1010.7 509.3 1016.5 509.8 1023.2 508.8C1026.1 508.4 1037.7 506.3 1048.7 497.5C1059.5 488.8 1063.9 478.2 1066.8 471C1074.8 451 1073.2 433.4 1070.4 401.7C1069.2 387.6 1068.5 380.4 1065.7 370.9C1062.7 360.6 1058 345.4 1044.6 331.8C1035 321.8 1024.2 316.2 1015.3 312.9Z" fill="#3D3D3D"/>
<path opacity="0.48" d="M918.7 398.4C928.7 389.5 939.9 378.1 950.7 363.9C957.4 355.1 963 346.6 967.6 338.7C965.9 347.7 964.2 356.7 962.6 365.7C958.7 371.3 952.2 379.3 942.1 386.6C933.2 392.9 924.8 396.4 918.7 398.4Z" fill="#3D3D3D"/>
<path opacity="0.27" d="M989.8 387C997.4 412.3 998 433.5 997.3 447.5C996.8 457.9 994 512.4 965.3 531.2C962.5 533 955.4 537.2 955.7 537.8C956.1 538.5 969.4 532.6 976.7 528.6C988.2 522.4 1005.9 509.9 1022.3 483.5C1025 483.8 1038.2 484.7 1047.7 475.6C1059.2 464.7 1061.2 443.3 1052.1 437C1045.6 432.5 1033.2 436.3 1022.3 445.3C1021.2 440.7 1019.8 435.9 1017.9 430.8C1010.4 411 999.1 396.6 989.8 387Z" fill="#3D3D3D"/>
<path opacity="0.36" d="M965.7 537C968.3 545 970.9 553 973.5 561.1C977.1 572.1 980.6 583.2 984.1 594.2C986.1 593.8 991 592.4 995.3 588C999.6 583.6 1001 578.8 1001.5 576.8C997.6 569.1 993 557.4 991.4 542.6C990.6 534.9 990.8 528.1 991.4 522.4C982.9 527.3 974.3 532.2 965.7 537Z" fill="#3D3D3D"/>
<path opacity="0.43" d="M915.8 458.3C910.8 469 905.8 479.6 900.8 490.3C909 490.1 917.1 490 925.3 489.8C920.5 488.3 915.6 486.8 910.8 485.3C912.4 476.3 914.1 467.3 915.8 458.3Z" fill="#3D3D3D"/>
</svg>
