<svg
  xmlns="http://www.w3.org/2000/svg"
  width="34"
  height="34"
  viewBox="0 0 34 34"
  fill="none"
>
  <path
    d="M13.2778 15.4236C16.3154 15.4236 18.7778 12.9611 18.7778 9.92358C18.7778 6.88602 16.3154 4.42358 13.2778 4.42358C10.2403 4.42358 7.77783 6.88602 7.77783 9.92358C7.77783 12.9611 10.2403 15.4236 13.2778 15.4236Z"
    stroke="white"
    stroke-width="2.75"
    stroke-linecap="round"
    stroke-linejoin="round"
  />
  <path
    d="M5.02783 29.1736V26.4236C5.02783 24.9649 5.60729 23.5659 6.63874 22.5345C7.67019 21.503 9.06914 20.9236 10.5278 20.9236H16.0278C17.4865 20.9236 18.8855 21.503 19.9169 22.5345C20.9484 23.5659 21.5278 24.9649 21.5278 26.4236V29.1736"
    stroke="white"
    stroke-width="2.75"
    stroke-linecap="round"
    stroke-linejoin="round"
  />
  <path
    d="M22.9028 4.60229C24.0859 4.90521 25.1345 5.59326 25.8833 6.55797C26.6322 7.52268 27.0386 8.70919 27.0386 9.93042C27.0386 11.1517 26.6322 12.3382 25.8833 13.3029C25.1345 14.2676 24.0859 14.9556 22.9028 15.2585"
    stroke="white"
    stroke-width="2.75"
    stroke-linecap="round"
    stroke-linejoin="round"
  />
  <path
    d="M29.7778 29.1734V26.4234C29.7709 25.2095 29.3625 24.032 28.6163 23.0744C27.8702 22.1169 26.8282 21.4331 25.6528 21.1296"
    stroke="white"
    stroke-width="2.75"
    stroke-linecap="round"
    stroke-linejoin="round"
  />
</svg>
